<?xml version="1.0" encoding="utf-8"?>
<!-- Generator: Adobe Illustrator 27.7.0, SVG Export Plug-In . SVG Version: 6.00 Build 0)  -->
<svg version="1.1" id="Layer_1" xmlns="http://www.w3.org/2000/svg" xmlns:xlink="http://www.w3.org/1999/xlink" x="0px" y="0px"
	 viewBox="0 0 100 100" style="enable-background:new 0 0 100 100;" xml:space="preserve">
<style type="text/css">
	.st0{fill:#08081E;}
	.st1{fill:#00FFBC;}
	.st2{fill:none;stroke:#FFFFFF;stroke-width:0.7584;stroke-miterlimit:10;}
	.st3{fill:none;stroke:#000000;stroke-width:0.2713;stroke-miterlimit:10;}
	.st4{fill:#D6FF7D;}
</style>
<g>
	<path class="st0" d="M440.07,44.92V8.57c0-2.47-1.32-4.76-3.46-5.99l-31.49-18.18c-2.14-1.24-4.78-1.24-6.92,0L366.71,2.57
		c-2.14,1.24-3.46,3.52-3.46,5.99v36.36c0,2.47,1.32,4.76,3.46,5.99L398.2,69.1c2.14,1.24,4.78,1.24,6.92,0l31.49-18.18
		C438.75,49.68,440.07,47.4,440.07,44.92z"/>
	<g>
		<path class="st1" d="M402.05-1.14c-15.68-0.22-28.49,12.59-28.27,28.27c0.21,15.04,12.45,27.29,27.5,27.5
			c15.68,0.21,28.49-12.59,28.27-28.27C429.34,11.31,417.09-0.93,402.05-1.14z M426.09,19.03c0.72,2.29,1.12,4.67,1.18,7.09
			c0.01,0.34-0.26,0.63-0.61,0.63h-4.1c-0.33,0-0.6-0.26-0.61-0.59c-0.05-1.86-0.35-3.68-0.9-5.44c-0.1-0.31,0.07-0.64,0.38-0.75
			l3.88-1.33C425.64,18.53,425.99,18.7,426.09,19.03z M415.23,5.02c2.04,1.28,3.88,2.83,5.49,4.62c0.23,0.25,0.2,0.65-0.06,0.87
			l-3.11,2.66c-0.25,0.21-0.62,0.19-0.84-0.05c-1.24-1.37-2.66-2.57-4.22-3.55c-0.28-0.17-0.36-0.54-0.2-0.82l2.09-3.52
			C414.56,4.93,414.94,4.84,415.23,5.02z M405.58,2.05l-0.64,4.05c-0.05,0.32-0.35,0.55-0.67,0.51c-1.82-0.23-3.7-0.22-5.52,0.04
			c-0.32,0.05-0.62-0.17-0.68-0.5l-0.7-4.04c-0.06-0.34,0.17-0.66,0.51-0.71c2.36-0.35,4.81-0.37,7.18-0.05
			C405.39,1.4,405.63,1.72,405.58,2.05z M388.61,5.42l2.14,3.49c0.17,0.28,0.09,0.64-0.18,0.82c-1.55,1.01-2.95,2.23-4.17,3.62
			c-0.22,0.25-0.59,0.27-0.84,0.06l-3.15-2.61c-0.26-0.22-0.29-0.61-0.07-0.87c1.58-1.82,3.4-3.4,5.42-4.71
			C388.05,5.04,388.43,5.13,388.61,5.42z M377.9,19l3.9,1.27c0.31,0.1,0.48,0.42,0.4,0.73c-0.43,1.7-0.7,4.36-0.79,5.51
			c-0.03,0.31-0.28,0.55-0.6,0.56l-4.09,0.06c-0.36,0.01-0.64-0.3-0.61-0.66c0.12-1.44,0.46-4.89,1.02-7.04
			C377.21,19.08,377.57,18.89,377.9,19z M382.03,43.19c-1.55-1.85-2.83-3.9-3.8-6.1c-0.14-0.31,0.01-0.68,0.32-0.81l3.79-1.57
			c0.3-0.12,0.65,0.01,0.78,0.31c0.75,1.69,1.73,3.26,2.92,4.68c0.21,0.25,0.18,0.62-0.07,0.84l-3.07,2.71
			C382.64,43.49,382.25,43.46,382.03,43.19z M397.41,52.01c-2.38-0.4-4.68-1.13-6.85-2.17c-0.31-0.15-0.44-0.52-0.28-0.83l1.87-3.65
			c0.15-0.29,0.5-0.41,0.8-0.27c1.67,0.79,3.43,1.35,5.25,1.67c0.32,0.06,0.54,0.36,0.49,0.68l-0.58,4.06
			C398.07,51.83,397.75,52.06,397.41,52.01z M383.64,27.34c-0.34-10.41,8.2-18.96,18.62-18.62c9.45,0.31,17.11,7.97,17.42,17.42
			c0.34,10.41-8.2,18.96-18.62,18.62C391.61,44.46,383.95,36.79,383.64,27.34z M407.46,51.07l-0.95-3.99
			c-0.08-0.32,0.11-0.64,0.43-0.72c1.78-0.48,3.49-1.2,5.08-2.14c0.28-0.17,0.64-0.08,0.82,0.2l2.19,3.46
			c0.18,0.29,0.09,0.67-0.2,0.85c-2.07,1.24-4.29,2.18-6.62,2.8C407.87,51.6,407.54,51.4,407.46,51.07z M421.86,41.47l-3.31-2.42
			c-0.26-0.19-0.33-0.56-0.14-0.83c1.05-1.53,1.88-3.18,2.48-4.93c0.11-0.31,0.44-0.48,0.75-0.38l3.91,1.21
			c0.33,0.1,0.5,0.45,0.4,0.78c-0.77,2.28-1.85,4.44-3.23,6.42C422.52,41.61,422.13,41.68,421.86,41.47z"/>
		<path class="st1" d="M409.7,28.12c-0.5-0.75-1.09-1.35-1.77-1.8c-0.68-0.45-1.37-0.78-2.06-0.98c-0.69-0.2-1.23-0.35-1.63-0.42
			c-1.31-0.33-2.37-0.6-3.18-0.82c-0.81-0.21-1.44-0.43-1.9-0.64c-0.46-0.21-0.77-0.45-0.92-0.7c-0.16-0.25-0.23-0.59-0.23-1
			c0-0.45,0.1-0.82,0.29-1.11c0.19-0.29,0.44-0.54,0.75-0.73c0.3-0.19,0.64-0.33,1.01-0.41c0.37-0.08,0.74-0.12,1.11-0.12
			c0.57,0,1.09,0.05,1.57,0.15c0.48,0.1,0.9,0.26,1.27,0.5c0.37,0.23,0.67,0.56,0.89,0.97c0.15,0.27,0.25,0.58,0.32,0.95
			c0.07,0.35,0.38,0.61,0.74,0.61h2.99c0.45,0,0.8-0.39,0.76-0.84c-0.08-0.86-0.3-1.61-0.65-2.25c-0.46-0.85-1.08-1.55-1.86-2.09
			c-0.78-0.55-1.67-0.94-2.68-1.19c-0.35-0.08-0.7-0.15-1.06-0.21v-2.02c0-0.42-0.34-0.76-0.76-0.76h-2.62
			c-0.42,0-0.76,0.34-0.76,0.76v2.07c-0.25,0.05-0.51,0.11-0.76,0.18c-0.94,0.25-1.78,0.64-2.52,1.17c-0.74,0.53-1.34,1.19-1.8,1.98
			c-0.46,0.79-0.69,1.72-0.69,2.8c0,0.96,0.18,1.77,0.54,2.44c0.36,0.67,0.83,1.23,1.42,1.68c0.59,0.45,1.25,0.82,1.99,1.1
			c0.74,0.28,1.5,0.52,2.28,0.72c0.76,0.21,1.51,0.41,2.25,0.59c0.74,0.18,1.41,0.38,1.99,0.61c0.59,0.23,1.06,0.53,1.42,0.88
			c0.36,0.35,0.54,0.81,0.54,1.38c0,0.53-0.14,0.96-0.41,1.3c-0.27,0.34-0.61,0.61-1.02,0.81c-0.41,0.2-0.85,0.33-1.32,0.4
			c-0.47,0.07-0.91,0.1-1.32,0.1c-0.61,0-1.19-0.07-1.76-0.22c-0.57-0.15-1.06-0.37-1.48-0.67c-0.42-0.3-0.76-0.7-1.01-1.19
			c-0.17-0.33-0.28-0.71-0.34-1.13c-0.05-0.37-0.37-0.65-0.75-0.65h-2.96c-0.44,0-0.79,0.37-0.76,0.8c0.07,0.95,0.3,1.8,0.68,2.54
			c0.49,0.94,1.15,1.71,1.98,2.31c0.83,0.61,1.79,1.05,2.87,1.33c0.29,0.08,0.59,0.14,0.88,0.2v2.09c0,0.42,0.34,0.76,0.76,0.76
			h2.62c0.42,0,0.76-0.34,0.76-0.76v-1.95c0.76-0.08,1.46-0.22,2.09-0.41c1.08-0.33,1.99-0.8,2.72-1.39c0.73-0.6,1.28-1.3,1.65-2.12
			c0.37-0.82,0.56-1.71,0.56-2.66C410.45,29.83,410.2,28.87,409.7,28.12z"/>
	</g>
	<path class="st2" d="M443.69,46.64V6.85c0-2.71-1.44-5.21-3.79-6.56l-34.46-19.89c-2.34-1.35-5.23-1.35-7.58,0L363.41,0.29
		c-2.34,1.35-3.79,3.85-3.79,6.56v39.79c0,2.71,1.44,5.21,3.79,6.56l34.46,19.89c2.34,1.35,5.23,1.35,7.58,0l34.46-19.89
		C442.25,51.85,443.69,49.35,443.69,46.64z"/>
</g>
<g>
	<g>
		<g>
			<path class="st3" d="M72.16,16.98"/>
		</g>
	</g>
	<path class="st4" d="M96.26,50.05c0.05,25.87-21.43,46.38-46.43,46.23C24.78,96.13,3.77,75.81,3.74,50.07
		C3.7,23.74,25.47,3.5,50.44,3.72C75.79,3.95,96.36,24.82,96.26,50.05z M22.51,50.06c-0.04,14.78,11.84,27.42,27.46,27.48
		c15,0.06,27.59-11.93,27.56-27.57c-0.03-15.66-12.62-27.6-27.62-27.51C34.52,22.56,22.46,34.93,22.51,50.06z M58.76,20.82
		c-0.09,0.4,0.23,0.43,0.47,0.52c4.07,1.43,7.76,3.5,11.01,6.36c0.31,0.27,0.51,0.31,0.83,0c2.96-2.81,5.85-5.68,8.9-8.39
		c0.48-0.43,0.43-0.71,0-1.08c-0.9-0.78-1.75-1.6-2.66-2.36c-4.4-3.61-9.41-6.09-14.82-7.79c-0.59-0.19-0.71,0.07-0.82,0.55
		c-0.62,2.67-1.26,5.34-1.9,8.01C59.43,18.04,59.09,19.43,58.76,20.82z M37.74,8.04c-0.11,0.03-0.29,0.08-0.47,0.13
		c-6.59,1.93-12.22,5.49-17.25,10.09c-0.42,0.39-0.44,0.63,0,1.04c2.97,2.77,5.93,5.55,8.87,8.35c0.39,0.37,0.63,0.3,0.99-0.02
		c3.21-2.79,6.81-4.92,10.85-6.27c0.54-0.18,0.6-0.43,0.48-0.92c-0.38-1.49-0.74-2.99-1.1-4.49c-0.59-2.43-1.17-4.85-1.76-7.28
		C38.27,8.39,38.28,8.02,37.74,8.04z M62.24,91.94c0.07-0.02,0.17-0.05,0.27-0.08c6.57-1.84,12.21-5.32,17.23-9.87
		c0.77-0.7,0.75-0.72,0-1.44c-2.82-2.68-5.65-5.36-8.47-8.04c-0.61-0.58-0.61-0.59-1.27-0.03c-3.15,2.73-6.67,4.82-10.63,6.15
		c-0.53,0.18-0.67,0.42-0.53,0.97c0.52,2.04,1,4.08,1.49,6.12c0.45,1.86,0.88,3.72,1.34,5.58C61.74,91.6,61.74,91.98,62.24,91.94z
		 M41.25,79.23c0.05-0.48-0.34-0.49-0.61-0.58c-4.06-1.36-7.68-3.48-10.86-6.34c-0.33-0.3-0.56-0.25-0.84,0.02
		c-0.85,0.82-1.71,1.64-2.58,2.45c-2.14,2.03-4.28,4.07-6.44,6.09c-0.3,0.29-0.3,0.51-0.01,0.78c0.14,0.13,0.27,0.26,0.41,0.38
		c2.13,1.93,4.4,3.67,6.84,5.22c3.21,2.04,6.68,3.44,10.27,4.61c0.55,0.18,0.78,0.06,0.91-0.52c0.9-3.83,1.83-7.64,2.75-11.46
		C41.15,79.66,41.2,79.44,41.25,79.23z M93.69,49.92c-0.04-3.26-0.39-6.62-1.18-9.94c-0.18-0.77-0.19-0.79-0.95-0.56
		c-3.87,1.16-7.73,2.32-11.6,3.47c-0.49,0.14-0.6,0.36-0.49,0.86c0.89,4.19,0.9,8.38-0.02,12.57c-0.1,0.45,0.02,0.64,0.45,0.77
		c3.93,1.15,7.86,2.32,11.79,3.5c0.55,0.17,0.73,0.01,0.84-0.51C93.25,56.79,93.67,53.45,93.69,49.92z M20.6,43.48
		c0.06-0.32-0.13-0.46-0.4-0.53c-0.54-0.15-1.08-0.31-1.62-0.47c-3.41-1.01-6.82-2.02-10.23-3.05c-0.5-0.15-0.8-0.09-0.85,0.49
		c-0.01,0.12-0.06,0.24-0.08,0.36c-0.82,3.92-1.26,7.88-1.02,11.9c0.16,2.71,0.52,5.38,1.13,8.02c0.1,0.43,0.27,0.53,0.7,0.41
		c4-1.09,7.92-2.4,11.91-3.53c0.4-0.11,0.55-0.34,0.45-0.74c-0.21-0.76-0.32-1.55-0.42-2.33c-0.31-2.38-0.4-4.76-0.1-7.15
		C20.19,45.73,20.35,44.6,20.6,43.48z"/>
	<g>
		<path class="st4" d="M43.9,62.17c-1.76-1.76-3.52-3.52-5.28-5.27c-0.18-0.18-0.36-0.36-0.55-0.54c-0.06-0.05-0.1-0.16-0.19-0.13
			c-0.07,0.03-0.03,0.14-0.04,0.21c-0.01,0.27,0.02,0.54,0.03,0.81c0.06,1.51,0.26,3,0.56,4.48c0.05,0.23,0.16,0.32,0.38,0.36
			c1.44,0.25,2.9,0.35,4.37,0.36c0.2,0,0.41,0,0.61,0c0.09,0,0.23,0.04,0.26-0.07C44.09,62.29,43.97,62.24,43.9,62.17z"/>
		<path class="st4" d="M62.74,40.71c-0.05-0.81-0.16-1.6-0.31-2.4c-0.02-0.13-0.09-0.17-0.2-0.2c-0.55-0.12-1.1-0.21-1.65-0.3
			c-0.95-0.15-1.92-0.21-2.88-0.26c-0.37-0.02-0.75,0-1.16,0c0.04,0.05,0.05,0.07,0.07,0.09c1.95,1.95,3.89,3.9,5.84,5.84
			c0.06,0.06,0.13,0.13,0.2,0.19c0.11,0.1,0.16,0.05,0.18-0.07c0.01-0.06,0-0.12,0-0.18C62.83,42.52,62.8,41.61,62.74,40.71z"/>
		<path class="st4" d="M62.03,48.12c-1.42-1.41-2.84-2.81-4.26-4.23c-1.94-1.93-3.87-3.86-5.8-5.79c-0.11-0.12-0.22-0.15-0.38-0.12
			c-1.5,0.31-2.94,0.78-4.32,1.45c-2.73,1.31-4.92,3.24-6.55,5.78c-1.16,1.8-1.95,3.76-2.38,5.85c-0.06,0.29-0.05,0.52,0.21,0.69
			c0.02,0.02,0.04,0.04,0.06,0.06c3.28,3.28,6.57,6.56,9.85,9.84c0.14,0.14,0.26,0.2,0.46,0.15c2.96-0.73,5.59-2.08,7.85-4.13
			c2.47-2.25,4.17-4.98,5.13-8.18c0.11-0.37,0.2-0.74,0.29-1.07C62.2,48.25,62.1,48.19,62.03,48.12z M49.6,52.47
			c-0.75,0.75-1.5,1.49-2.24,2.24c-0.12,0.12-0.2,0.1-0.32-0.01c-1.68-1.68-3.35-3.36-5.03-5.04c-0.11-0.11-0.12-0.19-0.01-0.3
			c0.75-0.75,1.51-1.5,2.25-2.26c0.11-0.11,0.18-0.1,0.28,0c0.13,0.13,0.26,0.25,0.39,0.38c1.54,1.54,3.08,3.08,4.62,4.62
			c0.06,0.06,0.14,0.12,0.15,0.22C49.69,52.39,49.64,52.43,49.6,52.47z M55.03,47.04c-0.74,0.74-1.48,1.49-2.22,2.23
			c-0.1,0.1-0.17,0.17-0.31,0.03c-1.3-1.32-2.61-2.63-3.92-3.95c-0.38-0.38-0.76-0.76-1.14-1.13c-0.11-0.11-0.13-0.19-0.01-0.32
			c0.74-0.73,1.48-1.46,2.21-2.2c0.14-0.14,0.22-0.12,0.35,0.01c1.68,1.68,3.36,3.36,5.04,5.04c0.04,0.04,0.09,0.08,0.1,0.15
			C55.12,46.96,55.07,47,55.03,47.04z"/>
		<path class="st4" d="M50.43,25.7C37.39,25.43,25.79,36.15,25.7,49.82C25.62,63.05,36.29,74.17,49.93,74.3
			c13.15,0.13,24.52-10.94,24.35-24.26C74.42,36.94,63.69,25.97,50.43,25.7z M66.43,43.41c-0.11,3.51-0.77,6.9-2.25,10.1
			c-0.99,2.15-2.3,4.07-3.95,5.78c-1.68,1.73-3.59,3.14-5.73,4.23c-1.91,0.97-3.94,1.64-6.05,2.03c-1.73,0.32-3.48,0.51-5.24,0.5
			c-1.98-0.01-3.95-0.2-5.88-0.64c-1.1-0.25-1.83-0.95-2.15-2.02c-0.38-1.26-0.56-2.56-0.72-3.86c-0.16-1.27-0.24-2.55-0.22-3.83
			c0.05-3.47,0.68-6.82,2.12-9.99c0.86-1.9,2.02-3.6,3.42-5.14c1.44-1.59,3.12-2.87,4.99-3.89c1.78-0.98,3.68-1.66,5.67-2.1
			c1.59-0.36,3.21-0.56,4.84-0.64c1.77-0.09,3.53,0.03,5.28,0.27c1.04,0.14,2.07,0.32,3.09,0.58c1.21,0.3,1.91,1.1,2.19,2.28
			c0.29,1.23,0.42,2.48,0.52,3.73C66.42,41.67,66.45,42.54,66.43,43.41z"/>
	</g>
</g>
</svg>
