<?xml version="1.0" encoding="utf-8"?>
<!-- Generator: Adobe Illustrator 27.5.0, SVG Export Plug-In . SVG Version: 6.00 Build 0)  -->
<svg version="1.1" id="Layer_1" xmlns="http://www.w3.org/2000/svg" xmlns:xlink="http://www.w3.org/1999/xlink" x="0px" y="0px"
	 viewBox="0 0 261 40" style="enable-background:new 0 0 261 40;" xml:space="preserve">
<style type="text/css">
	.st0{fill:url(#SVGID_1_);}
	.st1{fill:#BB2025;}
	.st2{fill:#F3F4E9;}
</style>
<g>
	<linearGradient id="SVGID_1_" gradientUnits="userSpaceOnUse" x1="0.5713" y1="20" x2="260.4287" y2="20">
		<stop  offset="0" style="stop-color:#017D8C"/>
		<stop  offset="1" style="stop-color:#004150"/>
	</linearGradient>
	<path class="st0" d="M241.05,39.38H19.95C9.25,39.38,0.57,30.7,0.57,20v0c0-10.7,8.68-19.38,19.38-19.38h221.09
		c10.7,0,19.38,8.68,19.38,19.38v0C260.43,30.7,251.75,39.38,241.05,39.38z"/>
	<g>
		<g>
			<path class="st1" d="M29,6.37l-5.55,17.98c-0.23,0.8-0.34,1.32-0.34,1.56c0,0.36,0.17,0.55,0.52,0.55c0.32,0,0.69-0.2,1.09-0.59
				s0.79-0.91,1.14-1.55h1.5c-0.18,0.44-0.5,0.98-0.97,1.62c-0.47,0.65-1.06,1.21-1.77,1.7c-0.71,0.49-1.51,0.73-2.41,0.73
				c-1.8,0-2.7-0.97-2.7-2.91c0-0.07,0-0.14,0.01-0.2c0-0.06,0.01-0.14,0.01-0.22c-0.4,0.53-0.89,1.05-1.48,1.57
				s-1.25,0.94-1.98,1.27c-0.72,0.33-1.46,0.49-2.21,0.49c-1.12,0-1.97-0.36-2.56-1.07S10.4,25.7,10.4,24.6
				c0-1.18,0.23-2.35,0.7-3.53c0.46-1.18,1.1-2.25,1.9-3.21c0.8-0.96,1.73-1.73,2.8-2.31c1.06-0.58,2.17-0.87,3.31-0.87
				c0.88,0,1.53,0.16,1.97,0.47s0.82,0.7,1.14,1.17l1.84-6.09c0.22-0.58,0.33-0.97,0.33-1.17c0-0.28-0.09-0.48-0.27-0.61
				c-0.18-0.12-0.4-0.2-0.68-0.23c-0.28-0.03-0.69-0.04-1.23-0.04l0.38-1.44c1.06-0.02,1.9-0.04,2.5-0.06
				c0.6-0.02,1.1-0.05,1.48-0.09c0.38-0.04,0.83-0.11,1.34-0.22H29z M21.37,18.23c0-0.68-0.18-1.23-0.53-1.67
				c-0.35-0.44-0.82-0.66-1.39-0.66c-0.91,0-1.77,0.46-2.6,1.37c-0.83,0.91-1.49,2-1.99,3.27c-0.5,1.27-0.75,2.4-0.75,3.39
				c0,0.7,0.17,1.2,0.52,1.52s0.75,0.47,1.22,0.47c0.7,0,1.38-0.25,2.05-0.76c0.67-0.5,1.28-1.17,1.82-1.99
				c0.51-0.79,0.91-1.63,1.21-2.51C21.22,19.78,21.37,18.97,21.37,18.23z"/>
			<path class="st1" d="M44.62,24.18c-0.3,0.61-0.64,1.18-1.02,1.69c-0.38,0.51-0.79,0.96-1.25,1.34c-0.46,0.39-0.92,0.68-1.38,0.88
				c-0.46,0.2-0.95,0.3-1.45,0.3c-1.09,0-1.79-0.33-2.1-0.99c-0.31-0.66-0.46-1.45-0.46-2.37c-0.83,0.99-1.66,1.8-2.47,2.42
				s-1.74,0.94-2.78,0.94c-0.62,0-1.12-0.17-1.53-0.51s-0.71-0.79-0.9-1.37C29.09,25.94,29,25.32,29,24.67
				c0-1.41,0.36-2.89,1.08-4.45s1.7-2.88,2.93-3.94s2.56-1.59,3.99-1.59c0.66,0,1.17,0.13,1.55,0.39c0.38,0.26,0.63,0.55,0.77,0.88
				c0.14,0.32,0.26,0.68,0.37,1.08l0.58-1.95h3.45l-2.91,9.53c-0.21,0.69-0.31,1.1-0.31,1.25c0,0.14,0.04,0.25,0.13,0.34
				c0.09,0.09,0.19,0.14,0.3,0.14c0.68,0,1.4-0.72,2.17-2.16H44.62z M38.79,17.95c0-0.51-0.1-0.95-0.29-1.31
				c-0.19-0.36-0.54-0.55-1.05-0.55c-0.78,0-1.54,0.45-2.27,1.35c-0.73,0.9-1.33,1.99-1.78,3.27c-0.45,1.28-0.68,2.35-0.68,3.23
				c0,1.26,0.4,1.89,1.19,1.89c0.55,0,1.12-0.25,1.7-0.76c0.58-0.5,1.11-1.18,1.6-2.02c0.51-0.88,0.9-1.76,1.18-2.66
				C38.65,19.49,38.79,18.68,38.79,17.95z"/>
			<path class="st1" d="M63.32,23.84c-0.29,0.55-0.7,1.16-1.21,1.81s-1.16,1.24-1.93,1.74c-0.77,0.51-1.6,0.76-2.48,0.76
				c-0.77,0-1.38-0.19-1.83-0.56c-0.45-0.38-0.67-0.87-0.67-1.48c0-0.48,0.13-1.13,0.39-1.95l1.14-3.77
				c0.32-1.02,0.48-1.72,0.48-2.11c0-0.23-0.07-0.44-0.21-0.62s-0.34-0.28-0.59-0.28c-0.56,0-1.25,0.47-2.06,1.42
				c-0.81,0.95-1.64,2.23-2.48,3.84c-0.84,1.61-1.57,3.38-2.18,5.3h-3.72l2.83-9.16c0.25-0.92,0.38-1.45,0.38-1.59
				c0-0.12-0.03-0.25-0.09-0.38c-0.06-0.13-0.18-0.2-0.36-0.2c-0.41,0-0.79,0.26-1.16,0.77c-0.37,0.51-0.69,1.07-0.95,1.67h-1.31
				c0.4-1.11,1-2.12,1.83-3.02c0.82-0.9,1.87-1.34,3.14-1.34c0.81,0,1.42,0.22,1.82,0.66c0.4,0.44,0.6,0.9,0.6,1.39
				c0,0.27-0.06,0.68-0.17,1.23c-0.12,0.55-0.25,1.07-0.39,1.55l-0.55,1.61c1.29-1.99,2.5-3.56,3.64-4.71
				c1.13-1.15,2.4-1.73,3.78-1.73c0.8,0,1.38,0.23,1.75,0.7c0.36,0.46,0.55,0.97,0.55,1.51c0,0.33-0.12,0.96-0.38,1.89l-1.64,5.44
				c-0.19,0.68-0.28,1.15-0.28,1.42c0,0.1,0.03,0.2,0.1,0.3c0.07,0.09,0.16,0.14,0.27,0.14c0.29,0,0.66-0.21,1.12-0.62
				c0.45-0.41,0.87-0.95,1.26-1.62H63.32z"/>
			<path class="st1" d="M88.6,17.34c0,1.14-0.25,2.34-0.75,3.6s-1.19,2.47-2.08,3.62c-0.89,1.15-1.9,2.07-3.04,2.77
				s-2.3,1.05-3.48,1.05c-1.68,0-2.88-0.85-3.61-2.56c-0.91,0.6-1.94,1.18-3.09,1.73s-2.29,0.83-3.41,0.83
				c-0.95,0-1.77-0.29-2.47-0.88c-0.7-0.59-1.05-1.4-1.05-2.45c0-0.68,0.13-1.29,0.41-1.85c0.27-0.56,0.62-1.06,1.05-1.52
				c0.43-0.45,1.02-1.01,1.77-1.66c0.27-0.23,0.58-0.52,0.91-0.88c0.34-0.35,0.55-0.59,0.62-0.7s0.19-0.29,0.34-0.54
				c0.15-0.25,0.27-0.45,0.35-0.61c-0.4,0.22-0.75,0.4-1.05,0.53c-0.3,0.14-0.62,0.2-0.97,0.2c-0.46,0-0.97-0.15-1.53-0.45
				c-0.45-0.23-0.78-0.34-1-0.34c-0.43,0-0.75,0.31-0.95,0.92h-1.31c0.76-2.32,1.83-3.48,3.2-3.48c0.63,0,1.41,0.38,2.33,1.12
				c0.36,0.27,0.69,0.41,0.97,0.41c0.26,0,0.45-0.08,0.58-0.24c0.12-0.16,0.24-0.41,0.34-0.74c0.1-0.36,0.33-0.55,0.67-0.55
				c0.43,0,0.64,0.21,0.64,0.64c0,0.5-0.23,1.22-0.68,2.16s-0.82,1.6-1.09,2c-0.42,0.72-0.75,1.29-0.99,1.72
				c-0.25,0.43-0.44,0.81-0.59,1.16c-0.15,0.34-0.26,0.69-0.34,1.02c-0.08,0.34-0.12,0.67-0.12,1.01c0,0.61,0.18,1.07,0.55,1.37
				c0.37,0.3,0.79,0.45,1.27,0.45c1.32,0,2.75-0.55,4.28-1.66c-0.12-0.72-0.19-1.27-0.19-1.64c0-0.7,0.11-1.51,0.34-2.44
				c0.23-0.93,0.56-1.84,0.99-2.73c0.43-0.89,0.95-1.62,1.55-2.2c0.6-0.57,1.27-0.86,2-0.86c0.61,0,1.1,0.27,1.47,0.81
				c0.36,0.54,0.55,1.14,0.55,1.78c0,2.04-1.19,4.13-3.58,6.27c0.58,1.65,1.5,2.47,2.75,2.47c0.88,0,1.7-0.33,2.45-1
				c0.74-0.67,1.33-1.49,1.77-2.47c0.43-0.98,0.65-1.9,0.65-2.77c0-0.48-0.15-1.3-0.44-2.47c-0.06-0.25-0.09-0.5-0.09-0.77
				c0-0.59,0.15-1.05,0.45-1.38c0.3-0.32,0.64-0.48,1.02-0.48c0.47,0,0.85,0.24,1.15,0.72C88.46,15.88,88.6,16.53,88.6,17.34z
				 M80.81,17.31c0-0.32-0.08-0.62-0.25-0.88c-0.17-0.27-0.41-0.4-0.72-0.4c-0.56,0-1.03,0.41-1.4,1.23
				c-0.37,0.82-0.55,1.85-0.55,3.1c0,0.6,0.06,1.22,0.19,1.84c0.68-0.68,1.3-1.43,1.88-2.26C80.52,19.11,80.81,18.23,80.81,17.31z"
				/>
			<path class="st1" d="M99.04,24.18c-0.41,0.91-1.04,1.83-1.91,2.78c-0.87,0.95-1.95,1.42-3.25,1.42c-0.88,0-1.53-0.22-1.97-0.65
				s-0.66-0.95-0.66-1.54c0-0.6,0.19-1.44,0.58-2.52l2.02-5.52c0.2-0.5,0.3-0.84,0.3-1.02c0-0.11-0.05-0.22-0.14-0.31
				s-0.2-0.14-0.31-0.14c-0.35,0-0.74,0.28-1.16,0.83c-0.42,0.55-0.74,1.05-0.95,1.48h-1.38c0.61-1.38,1.41-2.44,2.4-3.2
				c0.98-0.75,1.97-1.13,2.95-1.13c0.69,0,1.26,0.17,1.71,0.51c0.45,0.34,0.68,0.79,0.68,1.35c0,0.59-0.12,1.19-0.34,1.8l-2.44,6.55
				c-0.17,0.45-0.25,0.81-0.25,1.09c0,0.12,0.05,0.25,0.15,0.37c0.1,0.12,0.21,0.18,0.32,0.18c0.31,0,0.63-0.17,0.97-0.5
				c0.33-0.33,0.75-0.95,1.25-1.84H99.04z M100.2,8.39c0,0.56-0.2,1.04-0.6,1.45c-0.4,0.4-0.87,0.6-1.41,0.6
				c-0.58,0-1.07-0.2-1.46-0.6c-0.39-0.4-0.59-0.88-0.59-1.45c0-0.54,0.2-1.01,0.59-1.41c0.39-0.4,0.88-0.6,1.46-0.6
				c0.38,0,0.72,0.09,1.02,0.27c0.31,0.18,0.55,0.42,0.73,0.72C100.11,7.66,100.2,8,100.2,8.39z"/>
			<path class="st1" d="M110.34,6.37l-5.47,17.92c-0.28,0.89-0.42,1.44-0.42,1.66c0,0.18,0.04,0.32,0.12,0.42
				c0.08,0.1,0.19,0.16,0.33,0.16c0.27,0,0.65-0.24,1.12-0.73c0.48-0.49,0.86-1.05,1.14-1.67h1.47c-0.51,0.97-1.19,1.92-2.05,2.86
				c-0.85,0.94-1.92,1.41-3.2,1.41c-0.78,0-1.41-0.22-1.88-0.65c-0.47-0.43-0.71-0.96-0.71-1.57c0-0.48,0.16-1.27,0.48-2.36l4-13.03
				c0.26-0.85,0.39-1.42,0.39-1.7c0-0.36-0.15-0.6-0.45-0.72c-0.3-0.11-0.85-0.17-1.66-0.17l0.38-1.44h1.67
				c0.72,0,1.38-0.03,1.97-0.08c0.59-0.05,1.16-0.15,1.7-0.3H110.34z"/>
			<path class="st1" d="M129.03,6.37l-5.55,17.98c-0.23,0.8-0.34,1.32-0.34,1.56c0,0.36,0.17,0.55,0.52,0.55
				c0.32,0,0.69-0.2,1.09-0.59s0.79-0.91,1.14-1.55h1.5c-0.18,0.44-0.5,0.98-0.97,1.62c-0.47,0.65-1.06,1.21-1.77,1.7
				c-0.71,0.49-1.51,0.73-2.41,0.73c-1.8,0-2.7-0.97-2.7-2.91c0-0.07,0-0.14,0.01-0.2c0-0.06,0.01-0.14,0.01-0.22
				c-0.4,0.53-0.89,1.05-1.48,1.57s-1.25,0.94-1.98,1.27c-0.72,0.33-1.46,0.49-2.21,0.49c-1.12,0-1.97-0.36-2.56-1.07
				s-0.89-1.62-0.89-2.71c0-1.18,0.23-2.35,0.7-3.53c0.46-1.18,1.1-2.25,1.9-3.21c0.8-0.96,1.73-1.73,2.8-2.31
				c1.06-0.58,2.17-0.87,3.31-0.87c0.88,0,1.53,0.16,1.97,0.47s0.82,0.7,1.14,1.17l1.84-6.09c0.22-0.58,0.33-0.97,0.33-1.17
				c0-0.28-0.09-0.48-0.27-0.61c-0.18-0.12-0.4-0.2-0.68-0.23c-0.28-0.03-0.69-0.04-1.23-0.04l0.38-1.44
				c1.06-0.02,1.9-0.04,2.5-0.06c0.6-0.02,1.1-0.05,1.48-0.09c0.38-0.04,0.83-0.11,1.34-0.22H129.03z M121.4,18.23
				c0-0.68-0.18-1.23-0.53-1.67c-0.35-0.44-0.82-0.66-1.39-0.66c-0.91,0-1.77,0.46-2.6,1.37c-0.83,0.91-1.49,2-1.99,3.27
				c-0.5,1.27-0.75,2.4-0.75,3.39c0,0.7,0.17,1.2,0.52,1.52s0.75,0.47,1.22,0.47c0.7,0,1.38-0.25,2.05-0.76
				c0.67-0.5,1.28-1.17,1.82-1.99c0.51-0.79,0.91-1.63,1.21-2.51C121.25,19.78,121.4,18.97,121.4,18.23z"/>
			<path class="st1" d="M142.67,17.28c0,0.43-0.13,0.92-0.39,1.48c-0.26,0.56-0.74,1.15-1.43,1.77c-0.69,0.62-1.68,1.18-2.97,1.66
				c-1.29,0.48-2.9,0.81-4.85,0.98l-0.38,0.03c-0.08,0.42-0.12,0.8-0.12,1.16c0,0.77,0.18,1.33,0.55,1.66
				c0.37,0.34,0.91,0.51,1.62,0.51c1.56,0,3.06-0.84,4.48-2.53h1.66c-0.65,0.99-1.62,1.97-2.94,2.94s-2.87,1.45-4.67,1.45
				c-1.25,0-2.32-0.34-3.21-1.01s-1.34-1.66-1.34-2.96c0-1.59,0.44-3.14,1.33-4.65c0.88-1.5,2.09-2.73,3.62-3.67
				c1.53-0.94,3.2-1.41,5-1.41c1.45,0,2.48,0.25,3.1,0.73C142.36,15.91,142.67,16.53,142.67,17.28z M139.37,17.21
				c0-0.34-0.12-0.66-0.36-0.95c-0.24-0.29-0.57-0.43-0.98-0.43c-0.73,0-1.4,0.25-2.01,0.76c-0.61,0.51-1.12,1.1-1.54,1.79
				c-0.42,0.69-0.76,1.39-1.02,2.09c-0.27,0.71-0.43,1.15-0.49,1.31c2.11-0.35,3.71-0.95,4.79-1.8S139.37,18.22,139.37,17.21z"/>
			<path class="st1" d="M157.68,16.73c0,0.66-0.18,1.24-0.55,1.74c-0.37,0.51-0.82,0.76-1.38,0.76c-0.47,0-0.93-0.28-1.38-0.83
				c-0.25-0.32-0.5-0.48-0.73-0.48c-0.28,0-0.67,0.26-1.16,0.79c-0.49,0.53-0.99,1.23-1.51,2.1s-1.02,1.88-1.52,3.01
				c-0.5,1.13-0.93,2.29-1.3,3.48l-0.19,0.64h-3.67l2.45-8.77c0.26-0.84,0.39-1.43,0.39-1.77c0-0.12-0.04-0.25-0.11-0.37
				c-0.07-0.12-0.19-0.18-0.34-0.18c-0.41,0-0.82,0.28-1.23,0.85c-0.42,0.57-0.73,1.09-0.94,1.55h-1.44c0.6-1.21,1.22-2.14,1.85-2.8
				c0.63-0.66,1.24-1.12,1.83-1.38c0.59-0.26,1.12-0.39,1.6-0.39c0.83,0,1.37,0.26,1.62,0.78c0.24,0.52,0.37,1.03,0.37,1.53
				c0,0.91-0.29,2.33-0.88,4.28c0.59-1.02,1.08-1.84,1.46-2.45c0.38-0.61,0.83-1.25,1.36-1.91c0.53-0.66,1.08-1.19,1.67-1.61
				c0.59-0.42,1.16-0.62,1.73-0.62c0.8,0,1.33,0.23,1.59,0.68C157.55,15.82,157.68,16.27,157.68,16.73z"/>
			<path class="st1" d="M176.4,6.37l-5.55,17.98c-0.23,0.8-0.34,1.32-0.34,1.56c0,0.36,0.17,0.55,0.52,0.55
				c0.32,0,0.69-0.2,1.09-0.59s0.79-0.91,1.14-1.55h1.5c-0.18,0.44-0.5,0.98-0.97,1.62c-0.47,0.65-1.06,1.21-1.77,1.7
				c-0.71,0.49-1.51,0.73-2.41,0.73c-1.8,0-2.7-0.97-2.7-2.91c0-0.07,0-0.14,0.01-0.2c0-0.06,0.01-0.14,0.01-0.22
				c-0.4,0.53-0.89,1.05-1.48,1.57s-1.25,0.94-1.98,1.27c-0.72,0.33-1.46,0.49-2.21,0.49c-1.12,0-1.97-0.36-2.56-1.07
				s-0.89-1.62-0.89-2.71c0-1.18,0.23-2.35,0.7-3.53c0.46-1.18,1.1-2.25,1.9-3.21c0.8-0.96,1.73-1.73,2.8-2.31
				c1.06-0.58,2.17-0.87,3.31-0.87c0.88,0,1.53,0.16,1.97,0.47s0.82,0.7,1.14,1.17l1.84-6.09c0.22-0.58,0.33-0.97,0.33-1.17
				c0-0.28-0.09-0.48-0.27-0.61c-0.18-0.12-0.4-0.2-0.68-0.23c-0.28-0.03-0.69-0.04-1.23-0.04L170,6.74c1.06-0.02,1.9-0.04,2.5-0.06
				c0.6-0.02,1.1-0.05,1.48-0.09c0.38-0.04,0.83-0.11,1.34-0.22H176.4z M168.78,18.23c0-0.68-0.18-1.23-0.53-1.67
				c-0.35-0.44-0.82-0.66-1.39-0.66c-0.91,0-1.77,0.46-2.6,1.37c-0.83,0.91-1.49,2-1.99,3.27c-0.5,1.27-0.75,2.4-0.75,3.39
				c0,0.7,0.17,1.2,0.52,1.52s0.75,0.47,1.22,0.47c0.7,0,1.38-0.25,2.05-0.76c0.67-0.5,1.28-1.17,1.82-1.99
				c0.51-0.79,0.91-1.63,1.21-2.51C168.63,19.78,168.78,18.97,168.78,18.23z"/>
			<path class="st1" d="M190.04,17.28c0,0.43-0.13,0.92-0.39,1.48c-0.26,0.56-0.74,1.15-1.43,1.77c-0.69,0.62-1.68,1.18-2.97,1.66
				c-1.29,0.48-2.9,0.81-4.85,0.98l-0.38,0.03c-0.08,0.42-0.12,0.8-0.12,1.16c0,0.77,0.18,1.33,0.55,1.66
				c0.37,0.34,0.91,0.51,1.62,0.51c1.56,0,3.06-0.84,4.48-2.53h1.66c-0.65,0.99-1.62,1.97-2.94,2.94s-2.87,1.45-4.67,1.45
				c-1.25,0-2.32-0.34-3.21-1.01s-1.34-1.66-1.34-2.96c0-1.59,0.44-3.14,1.33-4.65c0.88-1.5,2.09-2.73,3.62-3.67
				c1.53-0.94,3.2-1.41,5-1.41c1.45,0,2.48,0.25,3.1,0.73C189.73,15.91,190.04,16.53,190.04,17.28z M186.75,17.21
				c0-0.34-0.12-0.66-0.36-0.95c-0.24-0.29-0.57-0.43-0.98-0.43c-0.73,0-1.4,0.25-2.01,0.76c-0.61,0.51-1.12,1.1-1.54,1.79
				c-0.42,0.69-0.76,1.39-1.02,2.09c-0.27,0.71-0.43,1.15-0.49,1.31c2.11-0.35,3.71-0.95,4.79-1.8S186.75,18.22,186.75,17.21z"/>
			<path class="st1" d="M204.7,17.34c0,0.43-0.14,0.8-0.43,1.12c-0.29,0.32-0.67,0.48-1.16,0.48c-0.38,0-0.67-0.07-0.88-0.22
				c-0.21-0.15-0.38-0.35-0.5-0.61c-0.12-0.26-0.27-0.65-0.45-1.16c-0.1-0.35-0.27-0.63-0.49-0.83c-0.22-0.2-0.64-0.3-1.24-0.3
				c-0.54,0-1.03,0.14-1.46,0.42c-0.43,0.28-0.65,0.65-0.65,1.11c0,0.31,0.09,0.61,0.27,0.89c0.18,0.28,0.39,0.55,0.65,0.8
				c0.25,0.25,0.65,0.6,1.2,1.06c1.02,0.83,1.76,1.54,2.23,2.11c0.46,0.57,0.7,1.28,0.7,2.12c0,0.69-0.2,1.34-0.59,1.95
				c-0.4,0.61-1.05,1.11-1.97,1.5c-0.92,0.39-2.09,0.58-3.52,0.58c-2.05,0-3.5-0.38-4.33-1.13c-0.83-0.75-1.25-1.49-1.25-2.2
				c0-0.47,0.16-0.88,0.48-1.23c0.32-0.35,0.75-0.53,1.28-0.53c1.06,0,1.67,0.68,1.83,2.05c0.07,0.58,0.24,1.04,0.49,1.38
				c0.25,0.34,0.78,0.51,1.59,0.51c0.7,0,1.27-0.18,1.72-0.53c0.45-0.35,0.67-0.81,0.67-1.36c0-0.29-0.08-0.58-0.23-0.86
				c-0.15-0.28-0.47-0.62-0.95-1.03c-0.84-0.71-1.54-1.33-2.09-1.88c-0.55-0.54-0.96-1.06-1.24-1.56s-0.42-1.03-0.42-1.58
				c0-0.49,0.16-1.02,0.48-1.59c0.32-0.57,0.93-1.08,1.83-1.51c0.9-0.43,2.11-0.65,3.64-0.65c0.94,0,1.73,0.09,2.38,0.26
				c0.65,0.17,1.14,0.39,1.49,0.66c0.35,0.27,0.59,0.55,0.73,0.84C204.63,16.74,204.7,17.04,204.7,17.34z"/>
			<path class="st1" d="M214.46,24.18c-0.41,0.91-1.04,1.83-1.91,2.78c-0.87,0.95-1.95,1.42-3.25,1.42c-0.88,0-1.53-0.22-1.97-0.65
				s-0.66-0.95-0.66-1.54c0-0.6,0.19-1.44,0.58-2.52l2.02-5.52c0.2-0.5,0.3-0.84,0.3-1.02c0-0.11-0.05-0.22-0.14-0.31
				s-0.2-0.14-0.31-0.14c-0.35,0-0.74,0.28-1.16,0.83c-0.42,0.55-0.74,1.05-0.95,1.48h-1.38c0.61-1.38,1.41-2.44,2.4-3.2
				c0.98-0.75,1.97-1.13,2.95-1.13c0.69,0,1.26,0.17,1.71,0.51c0.45,0.34,0.68,0.79,0.68,1.35c0,0.59-0.12,1.19-0.34,1.8l-2.44,6.55
				c-0.17,0.45-0.25,0.81-0.25,1.09c0,0.12,0.05,0.25,0.15,0.37c0.1,0.12,0.21,0.18,0.32,0.18c0.31,0,0.63-0.17,0.97-0.5
				c0.33-0.33,0.75-0.95,1.25-1.84H214.46z M215.62,8.39c0,0.56-0.2,1.04-0.6,1.45c-0.4,0.4-0.87,0.6-1.41,0.6
				c-0.58,0-1.07-0.2-1.46-0.6c-0.39-0.4-0.59-0.88-0.59-1.45c0-0.54,0.2-1.01,0.59-1.41c0.39-0.4,0.88-0.6,1.46-0.6
				c0.38,0,0.72,0.09,1.02,0.27c0.31,0.18,0.55,0.42,0.73,0.72C215.53,7.66,215.62,8,215.62,8.39z"/>
			<path class="st1" d="M231.23,15.9c0,0.35-0.11,0.6-0.34,0.74c-0.22,0.14-0.44,0.21-0.65,0.21c-0.27,0-0.54-0.09-0.81-0.28
				c-0.17-0.12-0.32-0.19-0.47-0.19c-0.26,0-0.46,0.15-0.61,0.44c0.21,0.33,0.37,0.66,0.49,0.98c0.12,0.32,0.18,0.73,0.18,1.23
				c0,0.44-0.09,0.93-0.28,1.48s-0.52,1.08-1.01,1.6c-0.48,0.52-1.19,0.96-2.11,1.31c-0.92,0.35-2.07,0.53-3.43,0.53
				c-1.3,0-2.17,0.11-2.62,0.34c-0.44,0.23-0.66,0.56-0.66,1c0,0.2,0.08,0.37,0.23,0.51s0.39,0.27,0.71,0.38
				c0.32,0.11,0.88,0.28,1.7,0.51c0.82,0.22,1.62,0.45,2.4,0.68c2.81,0.8,4.22,2.1,4.22,3.91c0,0.78-0.27,1.5-0.8,2.17
				c-0.53,0.67-1.42,1.22-2.67,1.66s-2.9,0.66-4.94,0.66c-0.81,0-1.76-0.08-2.84-0.24c-1.08-0.16-2.08-0.51-2.98-1.04
				c-0.9-0.53-1.35-1.3-1.35-2.31c0-0.5,0.12-0.95,0.34-1.34c0.23-0.4,0.51-0.7,0.85-0.92c0.34-0.22,0.66-0.33,0.98-0.33
				c0.2,0,0.37,0.04,0.5,0.11c0.13,0.07,0.2,0.18,0.2,0.31c0,0.14-0.1,0.34-0.31,0.61c-0.36,0.47-0.55,0.89-0.55,1.25
				c0,1,0.57,1.67,1.7,2.02s2.3,0.52,3.48,0.52c1.46,0,2.62-0.2,3.49-0.59c0.87-0.4,1.3-0.92,1.3-1.56c0-0.32-0.09-0.58-0.27-0.77
				c-0.18-0.19-0.51-0.38-1.01-0.57c-0.5-0.19-1.4-0.5-2.73-0.93c-1.19-0.38-2.11-0.71-2.76-1.02c-0.65-0.3-1.14-0.66-1.48-1.07
				c-0.33-0.41-0.5-0.92-0.5-1.52c0-0.88,0.37-1.59,1.12-2.14c0.74-0.55,1.63-0.91,2.66-1.06c-0.81-0.32-1.42-0.81-1.81-1.45
				c-0.4-0.65-0.59-1.31-0.59-2c0-0.84,0.26-1.65,0.79-2.43c0.53-0.78,1.26-1.4,2.21-1.88c0.95-0.48,2.03-0.72,3.23-0.72
				c1.77,0,3.1,0.42,4,1.25c0.38-0.38,0.74-0.68,1.09-0.91c0.35-0.23,0.79-0.34,1.32-0.34c0.41,0,0.73,0.11,0.98,0.32
				C231.11,15.22,231.23,15.52,231.23,15.9z M225.64,17.76c0-0.35-0.07-0.67-0.2-0.96c-0.14-0.29-0.34-0.52-0.62-0.7
				c-0.28-0.18-0.59-0.27-0.95-0.27c-0.65,0-1.21,0.28-1.7,0.85c-0.49,0.57-0.86,1.25-1.12,2.03c-0.26,0.79-0.38,1.48-0.38,2.07
				c0,0.64,0.15,1.1,0.46,1.41c0.31,0.3,0.72,0.45,1.24,0.45c1.05,0,1.86-0.57,2.42-1.7C225.35,19.81,225.64,18.75,225.64,17.76z"/>
			<path class="st1" d="M249.12,23.84c-0.29,0.55-0.7,1.16-1.21,1.81s-1.16,1.24-1.93,1.74c-0.77,0.51-1.6,0.76-2.48,0.76
				c-0.77,0-1.38-0.19-1.83-0.56c-0.45-0.38-0.67-0.87-0.67-1.48c0-0.48,0.13-1.13,0.39-1.95l1.14-3.77
				c0.32-1.02,0.48-1.72,0.48-2.11c0-0.23-0.07-0.44-0.21-0.62s-0.34-0.28-0.59-0.28c-0.56,0-1.25,0.47-2.06,1.42
				c-0.81,0.95-1.64,2.23-2.48,3.84c-0.84,1.61-1.57,3.38-2.18,5.3h-3.72l2.83-9.16c0.25-0.92,0.38-1.45,0.38-1.59
				c0-0.12-0.03-0.25-0.09-0.38c-0.06-0.13-0.18-0.2-0.36-0.2c-0.41,0-0.79,0.26-1.16,0.77c-0.37,0.51-0.69,1.07-0.95,1.67h-1.31
				c0.4-1.11,1-2.12,1.83-3.02c0.82-0.9,1.87-1.34,3.14-1.34c0.81,0,1.42,0.22,1.82,0.66c0.4,0.44,0.6,0.9,0.6,1.39
				c0,0.27-0.06,0.68-0.17,1.23c-0.12,0.55-0.25,1.07-0.39,1.55l-0.55,1.61c1.29-1.99,2.5-3.56,3.64-4.71
				c1.13-1.15,2.4-1.73,3.78-1.73c0.8,0,1.38,0.23,1.75,0.7c0.36,0.46,0.55,0.97,0.55,1.51c0,0.33-0.12,0.96-0.38,1.89l-1.64,5.44
				c-0.19,0.68-0.28,1.15-0.28,1.42c0,0.1,0.03,0.2,0.1,0.3c0.07,0.09,0.16,0.14,0.27,0.14c0.29,0,0.66-0.21,1.12-0.62
				c0.45-0.41,0.87-0.95,1.26-1.62H249.12z"/>
		</g>
		<g>
			<g>
				<path class="st2" d="M29,6.37l-5.55,17.98c-0.23,0.8-0.34,1.32-0.34,1.56c0,0.36,0.17,0.55,0.52,0.55c0.32,0,0.69-0.2,1.09-0.59
					s0.79-0.91,1.14-1.55h1.5c-0.18,0.44-0.5,0.98-0.97,1.62c-0.47,0.65-1.06,1.21-1.77,1.7c-0.71,0.49-1.51,0.73-2.41,0.73
					c-1.8,0-2.7-0.97-2.7-2.91c0-0.07,0-0.14,0.01-0.2c0-0.06,0.01-0.14,0.01-0.22c-0.4,0.53-0.89,1.05-1.48,1.57
					s-1.25,0.94-1.98,1.27c-0.72,0.33-1.46,0.49-2.21,0.49c-1.12,0-1.97-0.36-2.56-1.07S10.4,25.7,10.4,24.6
					c0-1.18,0.23-2.35,0.7-3.53c0.46-1.18,1.1-2.25,1.9-3.21c0.8-0.96,1.73-1.73,2.8-2.31c1.06-0.58,2.17-0.87,3.31-0.87
					c0.88,0,1.53,0.16,1.97,0.47s0.82,0.7,1.14,1.17l1.84-6.09c0.22-0.58,0.33-0.97,0.33-1.17c0-0.28-0.09-0.48-0.27-0.61
					c-0.18-0.12-0.4-0.2-0.68-0.23c-0.28-0.03-0.69-0.04-1.23-0.04l0.38-1.44c1.06-0.02,1.9-0.04,2.5-0.06
					c0.6-0.02,1.1-0.05,1.48-0.09c0.38-0.04,0.83-0.11,1.34-0.22H29z M21.37,18.23c0-0.68-0.18-1.23-0.53-1.67
					c-0.35-0.44-0.82-0.66-1.39-0.66c-0.91,0-1.77,0.46-2.6,1.37c-0.83,0.91-1.49,2-1.99,3.27c-0.5,1.27-0.75,2.4-0.75,3.39
					c0,0.7,0.17,1.2,0.52,1.52s0.75,0.47,1.22,0.47c0.7,0,1.38-0.25,2.05-0.76c0.67-0.5,1.28-1.17,1.82-1.99
					c0.51-0.79,0.91-1.63,1.21-2.51C21.22,19.78,21.37,18.97,21.37,18.23z"/>
				<path class="st2" d="M44.62,24.18c-0.3,0.61-0.64,1.18-1.02,1.69c-0.38,0.51-0.79,0.96-1.25,1.34
					c-0.46,0.39-0.92,0.68-1.38,0.88c-0.46,0.2-0.95,0.3-1.45,0.3c-1.09,0-1.79-0.33-2.1-0.99c-0.31-0.66-0.46-1.45-0.46-2.37
					c-0.83,0.99-1.66,1.8-2.47,2.42s-1.74,0.94-2.78,0.94c-0.62,0-1.12-0.17-1.53-0.51s-0.71-0.79-0.9-1.37
					C29.09,25.94,29,25.32,29,24.67c0-1.41,0.36-2.89,1.08-4.45s1.7-2.88,2.93-3.94s2.56-1.59,3.99-1.59c0.66,0,1.17,0.13,1.55,0.39
					c0.38,0.26,0.63,0.55,0.77,0.88c0.14,0.32,0.26,0.68,0.37,1.08l0.58-1.95h3.45l-2.91,9.53c-0.21,0.69-0.31,1.1-0.31,1.25
					c0,0.14,0.04,0.25,0.13,0.34c0.09,0.09,0.19,0.14,0.3,0.14c0.68,0,1.4-0.72,2.17-2.16H44.62z M38.79,17.95
					c0-0.51-0.1-0.95-0.29-1.31c-0.19-0.36-0.54-0.55-1.05-0.55c-0.78,0-1.54,0.45-2.27,1.35c-0.73,0.9-1.33,1.99-1.78,3.27
					c-0.45,1.28-0.68,2.35-0.68,3.23c0,1.26,0.4,1.89,1.19,1.89c0.55,0,1.12-0.25,1.7-0.76c0.58-0.5,1.11-1.18,1.6-2.02
					c0.51-0.88,0.9-1.76,1.18-2.66C38.65,19.49,38.79,18.68,38.79,17.95z"/>
				<path class="st2" d="M63.32,23.84c-0.29,0.55-0.7,1.16-1.21,1.81s-1.16,1.24-1.93,1.74c-0.77,0.51-1.6,0.76-2.48,0.76
					c-0.77,0-1.38-0.19-1.83-0.56c-0.45-0.38-0.67-0.87-0.67-1.48c0-0.48,0.13-1.13,0.39-1.95l1.14-3.77
					c0.32-1.02,0.48-1.72,0.48-2.11c0-0.23-0.07-0.44-0.21-0.62s-0.34-0.28-0.59-0.28c-0.56,0-1.25,0.47-2.06,1.42
					c-0.81,0.95-1.64,2.23-2.48,3.84c-0.84,1.61-1.57,3.38-2.18,5.3h-3.72l2.83-9.16c0.25-0.92,0.38-1.45,0.38-1.59
					c0-0.12-0.03-0.25-0.09-0.38c-0.06-0.13-0.18-0.2-0.36-0.2c-0.41,0-0.79,0.26-1.16,0.77c-0.37,0.51-0.69,1.07-0.95,1.67h-1.31
					c0.4-1.11,1-2.12,1.83-3.02c0.82-0.9,1.87-1.34,3.14-1.34c0.81,0,1.42,0.22,1.82,0.66c0.4,0.44,0.6,0.9,0.6,1.39
					c0,0.27-0.06,0.68-0.17,1.23c-0.12,0.55-0.25,1.07-0.39,1.55l-0.55,1.61c1.29-1.99,2.5-3.56,3.64-4.71
					c1.13-1.15,2.4-1.73,3.78-1.73c0.8,0,1.38,0.23,1.75,0.7c0.36,0.46,0.55,0.97,0.55,1.51c0,0.33-0.12,0.96-0.38,1.89l-1.64,5.44
					c-0.19,0.68-0.28,1.15-0.28,1.42c0,0.1,0.03,0.2,0.1,0.3c0.07,0.09,0.16,0.14,0.27,0.14c0.29,0,0.66-0.21,1.12-0.62
					c0.45-0.41,0.87-0.95,1.26-1.62H63.32z"/>
				<path class="st2" d="M88.6,17.34c0,1.14-0.25,2.34-0.75,3.6s-1.19,2.47-2.08,3.62c-0.89,1.15-1.9,2.07-3.04,2.77
					s-2.3,1.05-3.48,1.05c-1.68,0-2.88-0.85-3.61-2.56c-0.91,0.6-1.94,1.18-3.09,1.73s-2.29,0.83-3.41,0.83
					c-0.95,0-1.77-0.29-2.47-0.88c-0.7-0.59-1.05-1.4-1.05-2.45c0-0.68,0.13-1.29,0.41-1.85c0.27-0.56,0.62-1.06,1.05-1.52
					c0.43-0.45,1.02-1.01,1.77-1.66c0.27-0.23,0.58-0.52,0.91-0.88c0.34-0.35,0.55-0.59,0.62-0.7s0.19-0.29,0.34-0.54
					c0.15-0.25,0.27-0.45,0.35-0.61c-0.4,0.22-0.75,0.4-1.05,0.53c-0.3,0.14-0.62,0.2-0.97,0.2c-0.46,0-0.97-0.15-1.53-0.45
					c-0.45-0.23-0.78-0.34-1-0.34c-0.43,0-0.75,0.31-0.95,0.92h-1.31c0.76-2.32,1.83-3.48,3.2-3.48c0.63,0,1.41,0.38,2.33,1.12
					c0.36,0.27,0.69,0.41,0.97,0.41c0.26,0,0.45-0.08,0.58-0.24c0.12-0.16,0.24-0.41,0.34-0.74c0.1-0.36,0.33-0.55,0.67-0.55
					c0.43,0,0.64,0.21,0.64,0.64c0,0.5-0.23,1.22-0.68,2.16s-0.82,1.6-1.09,2c-0.42,0.72-0.75,1.29-0.99,1.72
					c-0.25,0.43-0.44,0.81-0.59,1.16c-0.15,0.34-0.26,0.69-0.34,1.02c-0.08,0.34-0.12,0.67-0.12,1.01c0,0.61,0.18,1.07,0.55,1.37
					c0.37,0.3,0.79,0.45,1.27,0.45c1.32,0,2.75-0.55,4.28-1.66c-0.12-0.72-0.19-1.27-0.19-1.64c0-0.7,0.11-1.51,0.34-2.44
					c0.23-0.93,0.56-1.84,0.99-2.73c0.43-0.89,0.95-1.62,1.55-2.2c0.6-0.57,1.27-0.86,2-0.86c0.61,0,1.1,0.27,1.47,0.81
					c0.36,0.54,0.55,1.14,0.55,1.78c0,2.04-1.19,4.13-3.58,6.27c0.58,1.65,1.5,2.47,2.75,2.47c0.88,0,1.7-0.33,2.45-1
					c0.74-0.67,1.33-1.49,1.77-2.47c0.43-0.98,0.65-1.9,0.65-2.77c0-0.48-0.15-1.3-0.44-2.47c-0.06-0.25-0.09-0.5-0.09-0.77
					c0-0.59,0.15-1.05,0.45-1.38c0.3-0.32,0.64-0.48,1.02-0.48c0.47,0,0.85,0.24,1.15,0.72C88.46,15.88,88.6,16.53,88.6,17.34z
					 M80.81,17.31c0-0.32-0.08-0.62-0.25-0.88c-0.17-0.27-0.41-0.4-0.72-0.4c-0.56,0-1.03,0.41-1.4,1.23
					c-0.37,0.82-0.55,1.85-0.55,3.1c0,0.6,0.06,1.22,0.19,1.84c0.68-0.68,1.3-1.43,1.88-2.26C80.52,19.11,80.81,18.23,80.81,17.31z"
					/>
				<path class="st2" d="M99.04,24.18c-0.41,0.91-1.04,1.83-1.91,2.78c-0.87,0.95-1.95,1.42-3.25,1.42c-0.88,0-1.53-0.22-1.97-0.65
					s-0.66-0.95-0.66-1.54c0-0.6,0.19-1.44,0.58-2.52l2.02-5.52c0.2-0.5,0.3-0.84,0.3-1.02c0-0.11-0.05-0.22-0.14-0.31
					s-0.2-0.14-0.31-0.14c-0.35,0-0.74,0.28-1.16,0.83c-0.42,0.55-0.74,1.05-0.95,1.48h-1.38c0.61-1.38,1.41-2.44,2.4-3.2
					c0.98-0.75,1.97-1.13,2.95-1.13c0.69,0,1.26,0.17,1.71,0.51c0.45,0.34,0.68,0.79,0.68,1.35c0,0.59-0.12,1.19-0.34,1.8
					l-2.44,6.55c-0.17,0.45-0.25,0.81-0.25,1.09c0,0.12,0.05,0.25,0.15,0.37c0.1,0.12,0.21,0.18,0.32,0.18
					c0.31,0,0.63-0.17,0.97-0.5c0.33-0.33,0.75-0.95,1.25-1.84H99.04z M100.2,8.39c0,0.56-0.2,1.04-0.6,1.45
					c-0.4,0.4-0.87,0.6-1.41,0.6c-0.58,0-1.07-0.2-1.46-0.6c-0.39-0.4-0.59-0.88-0.59-1.45c0-0.54,0.2-1.01,0.59-1.41
					c0.39-0.4,0.88-0.6,1.46-0.6c0.38,0,0.72,0.09,1.02,0.27c0.31,0.18,0.55,0.42,0.73,0.72C100.11,7.66,100.2,8,100.2,8.39z"/>
				<path class="st2" d="M110.34,6.37l-5.47,17.92c-0.28,0.89-0.42,1.44-0.42,1.66c0,0.18,0.04,0.32,0.12,0.42
					c0.08,0.1,0.19,0.16,0.33,0.16c0.27,0,0.65-0.24,1.12-0.73c0.48-0.49,0.86-1.05,1.14-1.67h1.47c-0.51,0.97-1.19,1.92-2.05,2.86
					c-0.85,0.94-1.92,1.41-3.2,1.41c-0.78,0-1.41-0.22-1.88-0.65c-0.47-0.43-0.71-0.96-0.71-1.57c0-0.48,0.16-1.27,0.48-2.36
					l4-13.03c0.26-0.85,0.39-1.42,0.39-1.7c0-0.36-0.15-0.6-0.45-0.72c-0.3-0.11-0.85-0.17-1.66-0.17l0.38-1.44h1.67
					c0.72,0,1.38-0.03,1.97-0.08c0.59-0.05,1.16-0.15,1.7-0.3H110.34z"/>
				<path class="st2" d="M129.03,6.37l-5.55,17.98c-0.23,0.8-0.34,1.32-0.34,1.56c0,0.36,0.17,0.55,0.52,0.55
					c0.32,0,0.69-0.2,1.09-0.59s0.79-0.91,1.14-1.55h1.5c-0.18,0.44-0.5,0.98-0.97,1.62c-0.47,0.65-1.06,1.21-1.77,1.7
					c-0.71,0.49-1.51,0.73-2.41,0.73c-1.8,0-2.7-0.97-2.7-2.91c0-0.07,0-0.14,0.01-0.2c0-0.06,0.01-0.14,0.01-0.22
					c-0.4,0.53-0.89,1.05-1.48,1.57s-1.25,0.94-1.98,1.27c-0.72,0.33-1.46,0.49-2.21,0.49c-1.12,0-1.97-0.36-2.56-1.07
					s-0.89-1.62-0.89-2.71c0-1.18,0.23-2.35,0.7-3.53c0.46-1.18,1.1-2.25,1.9-3.21c0.8-0.96,1.73-1.73,2.8-2.31
					c1.06-0.58,2.17-0.87,3.31-0.87c0.88,0,1.53,0.16,1.97,0.47s0.82,0.7,1.14,1.17l1.84-6.09c0.22-0.58,0.33-0.97,0.33-1.17
					c0-0.28-0.09-0.48-0.27-0.61c-0.18-0.12-0.4-0.2-0.68-0.23c-0.28-0.03-0.69-0.04-1.23-0.04l0.38-1.44
					c1.06-0.02,1.9-0.04,2.5-0.06c0.6-0.02,1.1-0.05,1.48-0.09c0.38-0.04,0.83-0.11,1.34-0.22H129.03z M121.4,18.23
					c0-0.68-0.18-1.23-0.53-1.67c-0.35-0.44-0.82-0.66-1.39-0.66c-0.91,0-1.77,0.46-2.6,1.37c-0.83,0.91-1.49,2-1.99,3.27
					c-0.5,1.27-0.75,2.4-0.75,3.39c0,0.7,0.17,1.2,0.52,1.52s0.75,0.47,1.22,0.47c0.7,0,1.38-0.25,2.05-0.76
					c0.67-0.5,1.28-1.17,1.82-1.99c0.51-0.79,0.91-1.63,1.21-2.51C121.25,19.78,121.4,18.97,121.4,18.23z"/>
				<path class="st2" d="M142.67,17.28c0,0.43-0.13,0.92-0.39,1.48c-0.26,0.56-0.74,1.15-1.43,1.77c-0.69,0.62-1.68,1.18-2.97,1.66
					c-1.29,0.48-2.9,0.81-4.85,0.98l-0.38,0.03c-0.08,0.42-0.12,0.8-0.12,1.16c0,0.77,0.18,1.33,0.55,1.66
					c0.37,0.34,0.91,0.51,1.62,0.51c1.56,0,3.06-0.84,4.48-2.53h1.66c-0.65,0.99-1.62,1.97-2.94,2.94s-2.87,1.45-4.67,1.45
					c-1.25,0-2.32-0.34-3.21-1.01s-1.34-1.66-1.34-2.96c0-1.59,0.44-3.14,1.33-4.65c0.88-1.5,2.09-2.73,3.62-3.67
					c1.53-0.94,3.2-1.41,5-1.41c1.45,0,2.48,0.25,3.1,0.73C142.36,15.91,142.67,16.53,142.67,17.28z M139.37,17.21
					c0-0.34-0.12-0.66-0.36-0.95c-0.24-0.29-0.57-0.43-0.98-0.43c-0.73,0-1.4,0.25-2.01,0.76c-0.61,0.51-1.12,1.1-1.54,1.79
					c-0.42,0.69-0.76,1.39-1.02,2.09c-0.27,0.71-0.43,1.15-0.49,1.31c2.11-0.35,3.71-0.95,4.79-1.8S139.37,18.22,139.37,17.21z"/>
				<path class="st2" d="M157.68,16.73c0,0.66-0.18,1.24-0.55,1.74c-0.37,0.51-0.82,0.76-1.38,0.76c-0.47,0-0.93-0.28-1.38-0.83
					c-0.25-0.32-0.5-0.48-0.73-0.48c-0.28,0-0.67,0.26-1.16,0.79c-0.49,0.53-0.99,1.23-1.51,2.1s-1.02,1.88-1.52,3.01
					c-0.5,1.13-0.93,2.29-1.3,3.48l-0.19,0.64h-3.67l2.45-8.77c0.26-0.84,0.39-1.43,0.39-1.77c0-0.12-0.04-0.25-0.11-0.37
					c-0.07-0.12-0.19-0.18-0.34-0.18c-0.41,0-0.82,0.28-1.23,0.85c-0.42,0.57-0.73,1.09-0.94,1.55h-1.44
					c0.6-1.21,1.22-2.14,1.85-2.8c0.63-0.66,1.24-1.12,1.83-1.38c0.59-0.26,1.12-0.39,1.6-0.39c0.83,0,1.37,0.26,1.62,0.78
					c0.24,0.52,0.37,1.03,0.37,1.53c0,0.91-0.29,2.33-0.88,4.28c0.59-1.02,1.08-1.84,1.46-2.45c0.38-0.61,0.83-1.25,1.36-1.91
					c0.53-0.66,1.08-1.19,1.67-1.61c0.59-0.42,1.16-0.62,1.73-0.62c0.8,0,1.33,0.23,1.59,0.68
					C157.55,15.82,157.68,16.27,157.68,16.73z"/>
				<path class="st2" d="M176.4,6.37l-5.55,17.98c-0.23,0.8-0.34,1.32-0.34,1.56c0,0.36,0.17,0.55,0.52,0.55
					c0.32,0,0.69-0.2,1.09-0.59s0.79-0.91,1.14-1.55h1.5c-0.18,0.44-0.5,0.98-0.97,1.62c-0.47,0.65-1.06,1.21-1.77,1.7
					c-0.71,0.49-1.51,0.73-2.41,0.73c-1.8,0-2.7-0.97-2.7-2.91c0-0.07,0-0.14,0.01-0.2c0-0.06,0.01-0.14,0.01-0.22
					c-0.4,0.53-0.89,1.05-1.48,1.57s-1.25,0.94-1.98,1.27c-0.72,0.33-1.46,0.49-2.21,0.49c-1.12,0-1.97-0.36-2.56-1.07
					s-0.89-1.62-0.89-2.71c0-1.18,0.23-2.35,0.7-3.53c0.46-1.18,1.1-2.25,1.9-3.21c0.8-0.96,1.73-1.73,2.8-2.31
					c1.06-0.58,2.17-0.87,3.31-0.87c0.88,0,1.53,0.16,1.97,0.47s0.82,0.7,1.14,1.17l1.84-6.09c0.22-0.58,0.33-0.97,0.33-1.17
					c0-0.28-0.09-0.48-0.27-0.61c-0.18-0.12-0.4-0.2-0.68-0.23c-0.28-0.03-0.69-0.04-1.23-0.04L170,6.74
					c1.06-0.02,1.9-0.04,2.5-0.06c0.6-0.02,1.1-0.05,1.48-0.09c0.38-0.04,0.83-0.11,1.34-0.22H176.4z M168.78,18.23
					c0-0.68-0.18-1.23-0.53-1.67c-0.35-0.44-0.82-0.66-1.39-0.66c-0.91,0-1.77,0.46-2.6,1.37c-0.83,0.91-1.49,2-1.99,3.27
					c-0.5,1.27-0.75,2.4-0.75,3.39c0,0.7,0.17,1.2,0.52,1.52s0.75,0.47,1.22,0.47c0.7,0,1.38-0.25,2.05-0.76
					c0.67-0.5,1.28-1.17,1.82-1.99c0.51-0.79,0.91-1.63,1.21-2.51C168.63,19.78,168.78,18.97,168.78,18.23z"/>
				<path class="st2" d="M190.04,17.28c0,0.43-0.13,0.92-0.39,1.48c-0.26,0.56-0.74,1.15-1.43,1.77c-0.69,0.62-1.68,1.18-2.97,1.66
					c-1.29,0.48-2.9,0.81-4.85,0.98l-0.38,0.03c-0.08,0.42-0.12,0.8-0.12,1.16c0,0.77,0.18,1.33,0.55,1.66
					c0.37,0.34,0.91,0.51,1.62,0.51c1.56,0,3.06-0.84,4.48-2.53h1.66c-0.65,0.99-1.62,1.97-2.94,2.94s-2.87,1.45-4.67,1.45
					c-1.25,0-2.32-0.34-3.21-1.01s-1.34-1.66-1.34-2.96c0-1.59,0.44-3.14,1.33-4.65c0.88-1.5,2.09-2.73,3.62-3.67
					c1.53-0.94,3.2-1.41,5-1.41c1.45,0,2.48,0.25,3.1,0.73C189.73,15.91,190.04,16.53,190.04,17.28z M186.75,17.21
					c0-0.34-0.12-0.66-0.36-0.95c-0.24-0.29-0.57-0.43-0.98-0.43c-0.73,0-1.4,0.25-2.01,0.76c-0.61,0.51-1.12,1.1-1.54,1.79
					c-0.42,0.69-0.76,1.39-1.02,2.09c-0.27,0.71-0.43,1.15-0.49,1.31c2.11-0.35,3.71-0.95,4.79-1.8S186.75,18.22,186.75,17.21z"/>
				<path class="st2" d="M204.7,17.34c0,0.43-0.14,0.8-0.43,1.12c-0.29,0.32-0.67,0.48-1.16,0.48c-0.38,0-0.67-0.07-0.88-0.22
					c-0.21-0.15-0.38-0.35-0.5-0.61c-0.12-0.26-0.27-0.65-0.45-1.16c-0.1-0.35-0.27-0.63-0.49-0.83c-0.22-0.2-0.64-0.3-1.24-0.3
					c-0.54,0-1.03,0.14-1.46,0.42c-0.43,0.28-0.65,0.65-0.65,1.11c0,0.31,0.09,0.61,0.27,0.89c0.18,0.28,0.39,0.55,0.65,0.8
					c0.25,0.25,0.65,0.6,1.2,1.06c1.02,0.83,1.76,1.54,2.23,2.11c0.46,0.57,0.7,1.28,0.7,2.12c0,0.69-0.2,1.34-0.59,1.95
					c-0.4,0.61-1.05,1.11-1.97,1.5c-0.92,0.39-2.09,0.58-3.52,0.58c-2.05,0-3.5-0.38-4.33-1.13c-0.83-0.75-1.25-1.49-1.25-2.2
					c0-0.47,0.16-0.88,0.48-1.23c0.32-0.35,0.75-0.53,1.28-0.53c1.06,0,1.67,0.68,1.83,2.05c0.07,0.58,0.24,1.04,0.49,1.38
					c0.25,0.34,0.78,0.51,1.59,0.51c0.7,0,1.27-0.18,1.72-0.53c0.45-0.35,0.67-0.81,0.67-1.36c0-0.29-0.08-0.58-0.23-0.86
					c-0.15-0.28-0.47-0.62-0.95-1.03c-0.84-0.71-1.54-1.33-2.09-1.88c-0.55-0.54-0.96-1.06-1.24-1.56s-0.42-1.03-0.42-1.58
					c0-0.49,0.16-1.02,0.48-1.59c0.32-0.57,0.93-1.08,1.83-1.51c0.9-0.43,2.11-0.65,3.64-0.65c0.94,0,1.73,0.09,2.38,0.26
					c0.65,0.17,1.14,0.39,1.49,0.66c0.35,0.27,0.59,0.55,0.73,0.84C204.63,16.74,204.7,17.04,204.7,17.34z"/>
				<path class="st2" d="M214.46,24.18c-0.41,0.91-1.04,1.83-1.91,2.78c-0.87,0.95-1.95,1.42-3.25,1.42c-0.88,0-1.53-0.22-1.97-0.65
					s-0.66-0.95-0.66-1.54c0-0.6,0.19-1.44,0.58-2.52l2.02-5.52c0.2-0.5,0.3-0.84,0.3-1.02c0-0.11-0.05-0.22-0.14-0.31
					s-0.2-0.14-0.31-0.14c-0.35,0-0.74,0.28-1.16,0.83c-0.42,0.55-0.74,1.05-0.95,1.48h-1.38c0.61-1.38,1.41-2.44,2.4-3.2
					c0.98-0.75,1.97-1.13,2.95-1.13c0.69,0,1.26,0.17,1.71,0.51c0.45,0.34,0.68,0.79,0.68,1.35c0,0.59-0.12,1.19-0.34,1.8
					l-2.44,6.55c-0.17,0.45-0.25,0.81-0.25,1.09c0,0.12,0.05,0.25,0.15,0.37c0.1,0.12,0.21,0.18,0.32,0.18
					c0.31,0,0.63-0.17,0.97-0.5c0.33-0.33,0.75-0.95,1.25-1.84H214.46z M215.62,8.39c0,0.56-0.2,1.04-0.6,1.45
					c-0.4,0.4-0.87,0.6-1.41,0.6c-0.58,0-1.07-0.2-1.46-0.6c-0.39-0.4-0.59-0.88-0.59-1.45c0-0.54,0.2-1.01,0.59-1.41
					c0.39-0.4,0.88-0.6,1.46-0.6c0.38,0,0.72,0.09,1.02,0.27c0.31,0.18,0.55,0.42,0.73,0.72C215.53,7.66,215.62,8,215.62,8.39z"/>
				<path class="st2" d="M231.23,15.9c0,0.35-0.11,0.6-0.34,0.74c-0.22,0.14-0.44,0.21-0.65,0.21c-0.27,0-0.54-0.09-0.81-0.28
					c-0.17-0.12-0.32-0.19-0.47-0.19c-0.26,0-0.46,0.15-0.61,0.44c0.21,0.33,0.37,0.66,0.49,0.98c0.12,0.32,0.18,0.73,0.18,1.23
					c0,0.44-0.09,0.93-0.28,1.48s-0.52,1.08-1.01,1.6c-0.48,0.52-1.19,0.96-2.11,1.31c-0.92,0.35-2.07,0.53-3.43,0.53
					c-1.3,0-2.17,0.11-2.62,0.34c-0.44,0.23-0.66,0.56-0.66,1c0,0.2,0.08,0.37,0.23,0.51s0.39,0.27,0.71,0.38
					c0.32,0.11,0.88,0.28,1.7,0.51c0.82,0.22,1.62,0.45,2.4,0.68c2.81,0.8,4.22,2.1,4.22,3.91c0,0.78-0.27,1.5-0.8,2.17
					c-0.53,0.67-1.42,1.22-2.67,1.66s-2.9,0.66-4.94,0.66c-0.81,0-1.76-0.08-2.84-0.24c-1.08-0.16-2.08-0.51-2.98-1.04
					c-0.9-0.53-1.35-1.3-1.35-2.31c0-0.5,0.12-0.95,0.34-1.34c0.23-0.4,0.51-0.7,0.85-0.92c0.34-0.22,0.66-0.33,0.98-0.33
					c0.2,0,0.37,0.04,0.5,0.11c0.13,0.07,0.2,0.18,0.2,0.31c0,0.14-0.1,0.34-0.31,0.61c-0.36,0.47-0.55,0.89-0.55,1.25
					c0,1,0.57,1.67,1.7,2.02s2.3,0.52,3.48,0.52c1.46,0,2.62-0.2,3.49-0.59c0.87-0.4,1.3-0.92,1.3-1.56c0-0.32-0.09-0.58-0.27-0.77
					c-0.18-0.19-0.51-0.38-1.01-0.57c-0.5-0.19-1.4-0.5-2.73-0.93c-1.19-0.38-2.11-0.71-2.76-1.02c-0.65-0.3-1.14-0.66-1.48-1.07
					c-0.33-0.41-0.5-0.92-0.5-1.52c0-0.88,0.37-1.59,1.12-2.14c0.74-0.55,1.63-0.91,2.66-1.06c-0.81-0.32-1.42-0.81-1.81-1.45
					c-0.4-0.65-0.59-1.31-0.59-2c0-0.84,0.26-1.65,0.79-2.43c0.53-0.78,1.26-1.4,2.21-1.88c0.95-0.48,2.03-0.72,3.23-0.72
					c1.77,0,3.1,0.42,4,1.25c0.38-0.38,0.74-0.68,1.09-0.91c0.35-0.23,0.79-0.34,1.32-0.34c0.41,0,0.73,0.11,0.98,0.32
					C231.11,15.22,231.23,15.52,231.23,15.9z M225.64,17.76c0-0.35-0.07-0.67-0.2-0.96c-0.14-0.29-0.34-0.52-0.62-0.7
					c-0.28-0.18-0.59-0.27-0.95-0.27c-0.65,0-1.21,0.28-1.7,0.85c-0.49,0.57-0.86,1.25-1.12,2.03c-0.26,0.79-0.38,1.48-0.38,2.07
					c0,0.64,0.15,1.1,0.46,1.41c0.31,0.3,0.72,0.45,1.24,0.45c1.05,0,1.86-0.57,2.42-1.7C225.35,19.81,225.64,18.75,225.64,17.76z"
					/>
				<path class="st2" d="M249.12,23.84c-0.29,0.55-0.7,1.16-1.21,1.81s-1.16,1.24-1.93,1.74c-0.77,0.51-1.6,0.76-2.48,0.76
					c-0.77,0-1.38-0.19-1.83-0.56c-0.45-0.38-0.67-0.87-0.67-1.48c0-0.48,0.13-1.13,0.39-1.95l1.14-3.77
					c0.32-1.02,0.48-1.72,0.48-2.11c0-0.23-0.07-0.44-0.21-0.62s-0.34-0.28-0.59-0.28c-0.56,0-1.25,0.47-2.06,1.42
					c-0.81,0.95-1.64,2.23-2.48,3.84c-0.84,1.61-1.57,3.38-2.18,5.3h-3.72l2.83-9.16c0.25-0.92,0.38-1.45,0.38-1.59
					c0-0.12-0.03-0.25-0.09-0.38c-0.06-0.13-0.18-0.2-0.36-0.2c-0.41,0-0.79,0.26-1.16,0.77c-0.37,0.51-0.69,1.07-0.95,1.67h-1.31
					c0.4-1.11,1-2.12,1.83-3.02c0.82-0.9,1.87-1.34,3.14-1.34c0.81,0,1.42,0.22,1.82,0.66c0.4,0.44,0.6,0.9,0.6,1.39
					c0,0.27-0.06,0.68-0.17,1.23c-0.12,0.55-0.25,1.07-0.39,1.55l-0.55,1.61c1.29-1.99,2.5-3.56,3.64-4.71
					c1.13-1.15,2.4-1.73,3.78-1.73c0.8,0,1.38,0.23,1.75,0.7c0.36,0.46,0.55,0.97,0.55,1.51c0,0.33-0.12,0.96-0.38,1.89l-1.64,5.44
					c-0.19,0.68-0.28,1.15-0.28,1.42c0,0.1,0.03,0.2,0.1,0.3c0.07,0.09,0.16,0.14,0.27,0.14c0.29,0,0.66-0.21,1.12-0.62
					c0.45-0.41,0.87-0.95,1.26-1.62H249.12z"/>
			</g>
		</g>
	</g>
</g>
</svg>
