<?xml version="1.0" encoding="utf-8"?>
<!-- Generator: Adobe Illustrator 27.7.0, SVG Export Plug-In . SVG Version: 6.00 Build 0)  -->
<svg version="1.1" id="Layer_1" xmlns="http://www.w3.org/2000/svg" xmlns:xlink="http://www.w3.org/1999/xlink" x="0px" y="0px"
	 viewBox="0 0 486.25 486.25" style="enable-background:new 0 0 486.25 486.25;" xml:space="preserve">
<style type="text/css">
	.st0{fill:url(#SVGID_1_);}
	.st1{fill:url(#SVGID_00000049198767178602341280000009393206554103559090_);}
	.st2{fill:url(#SVGID_00000063603247207075194100000014991517595283130757_);}
	.st3{fill:url(#SVGID_00000123419166289928020600000005210576935945141654_);}
	.st4{fill:#FFFFFF;}
</style>
<g>
	<g>
		<linearGradient id="SVGID_1_" gradientUnits="userSpaceOnUse" x1="47.3311" y1="106.0287" x2="438.9193" y2="380.2217">
			<stop  offset="0" style="stop-color:#D62525"/>
			<stop  offset="1" style="stop-color:#AD1414"/>
		</linearGradient>
		<circle class="st0" cx="243.13" cy="243.13" r="239"/>
	</g>
	<g>
		
			<linearGradient id="SVGID_00000114067121505371214630000014423169023383620523_" gradientUnits="userSpaceOnUse" x1="334.2875" y1="312.9799" x2="454.6898" y2="397.2865">
			<stop  offset="0" style="stop-color:#D62525"/>
			<stop  offset="0.2531" style="stop-color:#BA2020"/>
			<stop  offset="0.7425" style="stop-color:#871717"/>
			<stop  offset="0.984" style="stop-color:#741414"/>
		</linearGradient>
		<path style="fill:url(#SVGID_00000114067121505371214630000014423169023383620523_);" d="M482.13,243.13
			c0-12.23-0.92-24.25-2.69-35.99c-25.67,8.57-49.9,21.05-68.88,40.08c-18.7,18.74-31.16,42.66-43.11,66.28
			c-28.54,56.41-56.14,113.96-91.15,166.35C392.59,463.7,482.13,363.87,482.13,243.13z"/>
	</g>
	<g>
		
			<linearGradient id="SVGID_00000008853434524445008520000005604383606055135634_" gradientUnits="userSpaceOnUse" x1="93.6948" y1="86.4345" x2="343.0034" y2="335.7431">
			<stop  offset="0.2852" style="stop-color:#D62525"/>
			<stop  offset="0.4649" style="stop-color:#BA2020"/>
			<stop  offset="0.8125" style="stop-color:#871717"/>
			<stop  offset="0.984" style="stop-color:#741414"/>
		</linearGradient>
		<path style="fill:url(#SVGID_00000008853434524445008520000005604383606055135634_);" d="M448.89,121.48
			c-15.67-26.45-36.29-49.61-60.59-68.22c-20.66,14.72-39.34,32.29-55.4,51.92c-17.33,21.17-32.42,45.3-55.76,59.58
			c-19.73,12.07-43.32,15.76-66.28,18.59c-54.42,6.7-109.26,9.94-164.09,9.6c-12.41-0.08-24.84-0.33-37.27-0.47
			c-3.52,16.33-5.38,33.28-5.38,50.66c0,40.73,10.19,79.07,28.15,112.63c20.13-1.43,40.21-3.27,60.05-6.51
			c84.92-13.87,165.33-54.21,227.22-113.99c33.89-32.74,62.68-71.37,101.67-97.83C430.11,131.38,439.36,126.1,448.89,121.48z"/>
	</g>
	<g>
		
			<linearGradient id="SVGID_00000087399416409568167400000004216081265022274701_" gradientUnits="userSpaceOnUse" x1="191.3727" y1="196.6611" x2="475.7602" y2="481.0486">
			<stop  offset="0" style="stop-color:#D62525"/>
			<stop  offset="0.2531" style="stop-color:#BA2020"/>
			<stop  offset="0.7425" style="stop-color:#871717"/>
			<stop  offset="0.984" style="stop-color:#741414"/>
		</linearGradient>
		<path style="fill:url(#SVGID_00000087399416409568167400000004216081265022274701_);" d="M448.89,121.48
			c-9.53,4.62-18.78,9.91-27.68,15.95c-38.99,26.47-67.77,65.1-101.67,97.83c-61.89,59.78-142.3,100.12-227.22,113.99
			c-19.83,3.24-39.91,5.08-60.05,6.51c40.26,75.21,119.58,126.37,210.85,126.37c11.25,0,22.32-0.78,33.16-2.28
			c35.02-52.38,62.62-109.94,91.15-166.35c11.95-23.62,24.42-47.54,43.11-66.28c18.98-19.03,43.21-31.51,68.88-40.08
			C474.77,176.25,464.19,147.3,448.89,121.48z"/>
	</g>
	<path class="st4" d="M375.77,81.5c-2.42-0.54-5.24-1.1-8.03-1.05c-3.37,0.07-6.78,0.24-10.08,0.4c-4.76,0.24-9.69,0.48-14.5,0.42
		c-2.36-0.03-4.72-0.45-7.21-0.89c-2.6-0.46-5.29-0.94-8.02-0.95c-13.7-0.04-26.72-2.51-38.71-7.35
		c-7.41-2.99-15.42-5.72-24.67-3.51c-2.6,0.62-5.45,0.48-8.45,0.32c-1.62-0.08-3.3-0.17-4.97-0.13c-1.13,0.03-2.29,0.01-3.41-0.01
		c-4.83-0.09-9.83-0.18-14.69,3.28c-2.65,1.89-6.7,3.04-9.86,2.82l-0.64-0.05c-4.42-0.32-6.86-0.5-8.51,1.03
		c-1.72,1.6-1.73,4.25-1.74,9.06c-0.01,2.01-0.42,3.39-1.16,3.89c-0.73,0.49-2.15,0.33-3.98-0.44c-1.41-0.59-2.84-1.23-4.49-1.96
		c-0.85-0.38-1.77-0.79-2.8-1.24l-3-1.32l0.49,3.24c1.05,7-0.9,9.1-4.15,10.09c-1.38,0.43-2.87,0.62-4.44,0.83
		c-1.09,0.15-2.22,0.3-3.34,0.53c-2.48,0.52-4.89,1.06-7.19,2.03c-0.73,0.31-1.22,0.98-1.5,2.06c-0.11,0.42-0.6,2.56,0.39,3.83
		c2.53,3.24,1.28,4.98-1.34,8.02c-0.91,1.06-1.86,2.16-2.53,3.4c-0.51,0.94-0.54,0.99-2.38,0.05c-1.11-0.57-2.37-1.21-3.8-1.09
		c-0.24,0.02-0.51,0.04-0.79,0.05c-1.88,0.11-3.83,0.22-4.6,1.76c-0.84,1.7-0.47,3.79-0.16,5.47l0.05,0.27
		c0.15,0.85,0.49,1.6,0.78,2.26c0.24,0.54,0.47,1.05,0.53,1.47c0.15,1.08,0.2,2.19,0.24,3.37c0.05,1.18,0.1,2.4,0.26,3.63
		c0.2,1.46,0.02,1.93-0.1,2.08c-0.07,0.09-0.39,0.38-1.6,0.49c-4.6,0.42-7.75,1.83-9.66,4.33c-2.01,2.63-2.53,6.4-1.61,11.51
		l0.27,1.48h1.51c0.36,0,0.72,0.01,1.08,0.01c0.86,0.02,1.75,0.03,2.66-0.03c0.96-0.07,1.64,0.05,1.93,0.31
		c0.28,0.26,0.44,0.89,0.46,1.78c0.04,2.97-0.45,3.71-2.67,3.97c-1.8,0.21-6.05,0.97-6.64,3.43c-0.64,2.64-1.82,7.56,3.16,10.38
		c0.44,0.25,0.86,0.57,1.32,0.96l-6.81,0.57l0.77,2.2c0.34,0.97,0.67,1.88,0.99,2.75c0.71,1.97,1.33,3.67,1.84,5.42
		c0.25,0.86,0.41,1.78,0.55,2.74c-0.94-0.03-1.9-0.04-2.89,0.07c-0.39,0.05-0.81,0.08-1.23,0.11c-1.88,0.14-4.01,0.31-5.42,1.64
		c-4.4,4.14-1.56,8.1,0.32,10.72c0.25,0.35,0.5,0.69,0.73,1.04c0.33,0.49,0.53,1.16,0.7,1.92c-0.72-0.24-1.39-0.5-2-0.83
		c-0.32-0.18-0.75-0.61-1.17-1.03c-0.99-0.99-2.23-2.21-3.96-2.07c-1.13,0.1-2.16,0.79-3.05,2.05c-1.53,2.17-1.1,5.63-0.51,8.48
		c-0.36-0.48-0.78-0.88-1.26-1.2c-1.37-0.91-3.13-1.11-5.39-0.62c-4.18,0.91-6.17,3.6-5.58,7.55c0.12,0.8-0.01,1.75-0.18,2.94
		l-1.53-0.54c-0.07-0.76,0.04-1.59,0.15-2.45c0.31-2.34,0.77-5.87-4.01-7.4c-1.46-0.47-7.33-1.32-8.64,1.33
		c-1.15,2.31-1.55,4.9-1.97,7.64c-0.08,0.52-0.16,1.06-0.25,1.6c-0.27-0.05-0.54-0.09-0.8-0.14c-1.06-0.18-2.83-0.48-3.22-0.85
		c-0.8-1.48-0.92-3.52-1.07-5.89c-0.07-1.15-0.15-2.34-0.31-3.58l-0.23-1.78l-11.67,1.39l0.75,8.34c-1.4-0.01-2.72-0.12-3.18-0.63
		c-0.79-0.87-0.43-4.03-0.02-6.69l0.3-1.94l-1.96-0.13c-0.87-0.06-1.76-0.19-2.7-0.33c-2.26-0.33-4.59-0.67-6.79,0.01
		c-4.4,1.36-3.47,5.06-2.97,7.04c0.17,0.69,0.34,1.34,0.35,1.85c0.02,0.65-0.47,1.59-0.94,2.5c-0.01,0.03-0.03,0.05-0.04,0.08
		c-0.15-0.05-0.29-0.1-0.44-0.14c-1.02-0.33-2.28-0.75-2.6-1.22c-5.58-8.27-7.71-9.1-17.6-6.84l-1.8,0.41l0.46,1.79
		c1.15,4.53,2.06,8.08,2.26,9.8c-1.88-8.78-3.97-11.01-12.41-10.69c-1.82,0.07-4.38,0.38-5.48,2.35c-1.11,1.97-0.05,4.34,0.85,5.95
		c0.32,0.57,0.71,1.05,1.05,1.48c0.3,0.37,0.58,0.72,0.74,1.03c1.37,2.7,1.08,3.32,1.07,3.32c-0.02,0.02-0.37,0.48-2.86,0.51
		l-2.32-12.66l-1.92,0.55c-0.93,0.27-1.89,0.5-2.82,0.72c-2.53,0.61-5.14,1.24-7.31,2.67c-1.71,1.13-1.07,3.42,1.05,9.22l0.16,0.43
		c0.77,2.12,0.69,2.77,0.65,2.91c-0.13,0.09-0.67,0.32-2.58,0.24c-0.02-0.31-0.03-0.62-0.05-0.93c-0.1-2.1-0.21-4.28-0.73-6.42
		c-0.37-1.51-2.28-5.83-4.88-5.72c-2.2,0.1-4.31,0.68-6.36,1.29c-0.43,4.47-0.75,8.98-0.93,13.52c0.07,0.26,0.13,0.52,0.2,0.77
		c0.08,0.32,0.16,0.64,0.25,0.96l-0.51,0.17c-0.09,2.65-0.14,5.3-0.14,7.97c0,11.41,0.8,22.64,2.35,33.63
		c0.07-0.67,0.13-1.34,0.2-1.99c0.35-3.6,0.7-7.32,1.47-10.84c0.36-1.65,1.46-3.28,2.62-5c0.04-0.07,0.09-0.13,0.13-0.2
		c0,0.48-0.01,0.94-0.06,1.38c-0.61,5.18-1.24,10.35-1.87,15.53c-0.38,3.13-0.77,6.31-1.15,9.5c1.26,7.1,2.83,14.09,4.7,20.96
		c0.23,0.07,0.47,0.14,0.72,0.18c1.84,0.28,3.02-0.32,3.69-0.89c1.64-1.38,1.89-3.83,1.92-5.8c0.11-7.26,0.47-14.63,1.05-21.91
		c0.42-5.23,0.94-10.78,2.21-16.1c0.8-3.32,2.01-5.35,3.89-6.35l-7.52,55.84l1.72,0.29c3.95,0.66,6.81,0.74,8.88-0.9
		c1.55-1.23,2.36-3.2,2.54-6.18c0.58-9.44,1.69-18.89,3.28-28.09c1.57-9.08,3.86-17.94,6.28-26.97c0.41-0.19,1.27-0.43,1.81-0.58
		c0.12-0.03,0.23-0.06,0.35-0.1c0.17,0.37,0.36,0.8,0.36,0.96c-1.05,6.15-2.18,12.4-3.28,18.44c-1.52,8.42-3.1,17.12-4.49,25.72
		c-1.01,6.25-1.73,12.63-2.42,18.8c-0.31,2.76-0.63,5.61-0.97,8.4l-0.15,1.21l4.3,2.35l0.96-0.98c0.58-0.59,1.24-1.16,1.94-1.77
		c1.73-1.49,3.51-3.03,4.38-5.17c1.07-2.64,1.43-5.48,1.79-8.23c0.16-1.25,0.33-2.54,0.55-3.76c1.01-5.4,2.08-10.9,3.11-16.21
		c2.48-12.76,5.04-25.95,7.08-39.02c0.63-4.03,1.7-4.44,5.17-4.08c-0.01,0.09-0.02,0.19-0.03,0.28c-0.13,1.29-0.25,2.51-0.49,3.65
		c-1.63,7.88-3.33,15.89-4.97,23.63l-1.68,7.93l-2.82,12.81c-0.44,2.01-0.93,4.05-1.4,6.03c-2.02,8.5-4.12,17.29-3.53,26.54
		c0.14,2.24,0.56,4.98,2.55,6.3c1.88,1.25,4.23,0.66,5.83,0.11l1.08-0.37l0.12-1.14c0.28-2.58,0.54-5.17,0.8-7.67
		c0.59-5.82,1.14-11.31,1.96-16.86c0.77-5.22,1.83-10.5,2.86-15.61c0.45-2.23,0.91-4.54,1.35-6.82l1.88-6.31l0.47-2.38
		c0.39-1.88,0.77-3.76,1.15-5.64c0.89-4.39,1.81-8.92,2.81-13.36c0.1-0.45,0.2-0.89,0.3-1.34c0.71-3.22,1.45-6.56,2.79-9.44
		c0.33-0.28,1.58-0.61,2.33-0.81c0.1-0.03,0.2-0.05,0.3-0.08c0.17,0.53,0.33,1.11,0.26,1.37c-1.15,4.72-2.49,9.5-3.78,14.11
		c-0.27,0.98-0.55,1.97-0.82,2.95l-0.29-0.12l-0.28,2.2l-0.39,1.43l0.2,0.08l-0.19,1.49l-1.77,4.5l0.16,2.4l-0.15,1.9l-0.91,5.19
		c-0.24,1.26-0.54,2.56-0.83,3.82c-0.68,2.96-1.39,6.02-1.49,9.14c-0.11,3.58,0.31,7.18,0.72,10.65c0.17,1.47,0.35,2.98,0.48,4.46
		l0.06,0.62l1.72,1.83l3.66,0.09l1.85-1.8l0.11-0.54c0.24-1.15,0.49-2.3,0.74-3.44c0.54-2.51,1.11-5.1,1.54-7.69
		c0.59-3.58,1.14-7.23,1.66-10.76c0.97-6.5,1.97-13.23,3.32-19.74c1.19-5.74,2.88-11.5,4.51-17.07c0.61-2.07,1.23-4.19,1.82-6.31
		c3.27-0.23,5.2,0,5.73,0.67c0.53,0.67,0.27,2.64-0.79,5.85c-0.31,0.93-0.62,1.86-0.92,2.8c-1.77,5.33-3.6,10.85-4.95,16.42
		c-1.67,6.85-2.61,13.74-3.24,18.97c-0.2,1.64,0.68,3.12,1.45,4.42c0.29,0.49,0.56,0.95,0.75,1.37l1.05,2.31l1.84-1.75
		c0.38-0.36,0.78-0.71,1.2-1.08c1.05-0.92,2.14-1.88,3.01-3.08c0.8-1.11,1.09-2.43,1.34-3.6c0.07-0.3,0.13-0.61,0.2-0.9
		c1.05-4.14,2.09-8.29,3.13-12.43c1.77-7.05,3.61-14.34,5.45-21.5c0.44-1.7,1.16-4.02,2.39-4.62c0.41-0.2,0.94-0.23,1.58-0.1
		L95.88,294.7l4.82,2.67l0.96-1.01c0.51-0.54,1.07-1.06,1.67-1.61c1.44-1.34,2.92-2.72,3.89-4.52c1.01-1.87,1.48-3.92,1.94-5.9
		c0.22-0.96,0.43-1.87,0.7-2.75c0.7-2.3,1.39-4.61,2.08-6.91c2.05-6.82,4.16-13.88,6.42-20.75c1.2-3.65,2.54-5.22,4.22-5.8
		c-0.94,2.94-2.03,5.85-3.17,8.89c-3.41,9.11-6.94,18.53-6.63,29.93l0.1,3.71l2.85-2.37c0.77-0.64,1.51-1.15,2.22-1.65
		c1.51-1.05,2.81-1.96,3.41-3.44c2.32-5.7,4.44-11.58,6.5-17.26c0.68-1.87,1.35-3.74,2.04-5.61c1.42-3.88,2.84-7.77,4.25-11.65
		l1.2-3.3c0.38,0.72,0.76,1.42,1.14,2.12c1.43,2.63,2.78,5.12,3.61,7.76c3.8,12.1,6.09,19.41-4.13,30.12
		c-8.14,8.53-14.15,19.54-17.38,31.86c-0.19,0.73-0.37,1.44-0.54,2.15c-1.18,4.81-2.11,8.62-6.58,11.19
		c-2.5,1.44-2.87,7.22-1.67,9.63c2.17,4.33,5.18,8.76,8.95,13.17c7.57,8.84,17.44,14.94,26.1,19.74c4.41,2.45,8.87,5.03,13.17,7.52
		c7.18,4.15,14.6,8.45,22.11,12.31c0.48,0.25,0.95,0.48,1.41,0.72c4.3,2.17,7.7,3.88,9.97,8.5c1.93,3.93,5.12,6.42,9,7.01
		c4.42,0.67,9.25-1.24,12.94-5.12c2.28-2.4,5.66-4.18,8.21-4.33c3.35-0.2,6.69,0.12,10.24,0.45c3.26,0.31,6.63,0.63,9.98,0.5
		c5.09-0.18,8.36,1.57,10.95,5.87c1.02,1.69,2.02,3.46,2.99,5.17c2.35,4.17,4.79,8.48,7.85,12.27c5.42,6.72,6.54,9.92,3.55,18.19
		l-1.37,3.78l3.74-1.49c0.41-0.16,0.85-0.33,1.3-0.51c3.67-1.41,7.46-2.86,7.86-5.73c0.79-5.72,1.41-13.03-0.87-18.88
		c-5.87-15.03-15.32-26.3-28.13-33.54c0.59-0.32,1.15-0.64,1.7-1.02c2.76-1.89,4.88-1.71,7.35,0.63c2.37,2.25,4.83,4.47,7.2,6.63
		c2.58,2.34,5.26,4.76,7.81,7.21c0.71,0.68,1.42,1.4,2.11,2.1c4.12,4.16,8.77,8.87,16.47,8.15c0.25,0.26,0.62,0.73,0.86,1.04
		c0.36,0.46,0.73,0.93,1.12,1.33l0.53,0.54h9.67l0.56-8.86l-0.64-0.58c-1.26-1.15-2.52-2.38-3.73-3.57
		c-2.76-2.7-5.61-5.49-8.86-7.73c-3.06-2.11-6.26-4.08-9.36-5.98c-7.58-4.66-14.74-9.06-20.62-15.65
		c-5.47-6.13-12.85-6.84-21.93-2.1c-7.93,4.14-16.57,7.91-26.4,11.52c-2.37,0.87-5.31,1.95-7.02,0.98c-0.99-0.56-1.68-1.9-2.06-3.97
		c-0.39-2.12-2.58-3.73-4.44-4.9c-5.25-3.3-10.62-6.6-15.81-9.8c-9.55-5.88-19.43-11.97-28.95-18.23
		c-5.06-3.33-9.86-7.28-14.51-11.1c-1.74-1.44-3.54-2.91-5.33-4.35c0.54-1.17,1.06-2.32,1.57-3.44c1.47-3.23,2.85-6.29,4.45-9.18
		c2.17-3.93,4.47-7.88,6.69-11.7c2.82-4.85,5.74-9.86,8.43-14.9c2.67-5,5.48-8.17,9.41-10.59c7.43-4.58,10.61-10.36,9.47-17.19
		c-2.36-14.12-7.42-23.78-15.91-30.4c-2.73-2.13-3.09-4.12-1.23-6.86c3.74-5.51,6.6-11.53,9.37-17.34c1.99-4.18,4.04-8.5,6.36-12.47
		c6.93-11.86,9.27-24.49,11.52-36.71l0.29-1.55c3.74-20.21,13.56-32.58,30.88-38.91c1.43-0.52,3.07-0.74,5.15-1
		c0.55-0.07,1.14-0.15,1.76-0.23v13.91c-0.62,0.19-1.22,0.34-1.77,0.48c-1.99,0.52-3.71,0.96-4.69,2.37
		c-2.38,3.42-2.95,7-1.63,10.07c1.41,3.26,4.84,5.52,9.41,6.21c1.95,0.29,4.1,0.73,5.29,1.73c12.07,10.16,22.24,16.64,32.98,20.99
		c9.31,3.77,20.46,7.41,32.65,5.79c0.9-0.12,1.8-0.28,2.66-0.44c1.18-0.21,2.29-0.42,3.4-0.51c7.98-0.7,15.48,1.1,23.42,3.01
		c2.86,0.69,5.82,1.4,8.78,1.98c10.92,2.13,21.42,3.2,31.2,3.2c0.01,0,0.02,0,0.04,0c5.83,0,10.16-0.55,12.36-3.2
		c1.99-2.4,1.68-5.83,1.05-9.17c-0.71-3.76-3.08-7.13-5.45-10.27c-1.04-1.38-2.88-1.64-4.51-1.87c-0.57-0.08-1.1-0.16-1.53-0.27
		l-2.01-0.53l-0.37,3.15l-2.92-0.86l-5.29-7.37l-0.9,4.6l-4.16-5.86l-0.38,5.74c-0.09-0.14-0.18-0.28-0.28-0.42
		c-0.21-0.32-0.42-0.64-0.62-0.96l-0.83-1.39l-3.52,1.6l-0.09,0.9l-2.8-4.32l-0.78,3.5l-2.24-5.42l-3.56,1.53l-0.07,0.74l-0.55-2.35
		l-4.55,0.78l-0.23,2.36c-0.9-0.6-2.15-0.98-4.02-1.4l-2.76-6.62l-3.15,4.29c-0.04-0.01-0.08-0.02-0.12-0.02
		c-0.87-0.18-1.68-0.35-2.36-0.65c-0.7-0.31-1.4-0.8-2.14-1.33c-0.37-0.26-0.74-0.52-1.12-0.77l-1.18-0.77l-1.35,1.26l-2.99-4.34
		l-1.44,2.45c-1.26,2.14-2.49,3.34-3.67,3.55c-0.92,0.17-2.02-0.27-3.27-1.29c-9.13-7.43-19.91-8.92-30.35-10.36
		c-1.16-0.16-2.31-0.32-3.47-0.49c-6.21-0.9-12.5-2.27-18.57-3.59c-1.61-0.35-3.25-0.71-4.9-1.06c1.49-0.38,2.98-0.77,4.46-1.15
		c5.6-1.45,11.38-2.94,17.09-4.26c3.44-0.8,7.05-1.32,10.54-1.82c8.09-1.17,16.45-2.37,24.02-7.06c1.32-0.82,3.15-1.16,5.09-1.53
		c0.3-0.06,0.61-0.12,0.92-0.18v9.51l5.63-4.15l-0.41,1.91l3.89,2.41l3.04-4.34v7.96l3.22-3.39c1.14-1.2,2.11-2.22,2.98-3.14
		l1.07,6.72l4.14-5.69l0.63,7.54l5.81-9.38l0.18,1.96l3.66,0.39l0.79-1.71l3.53,1.3l2.29-5.41l0.1,2.09l3.62,1l1.09-2.92l3.52,0.57
		l1.43-3.32l0.17,1.43l4.06,1.55l3.89-7.61c0.55,0.59,1.2,0.95,2.01,0.95c0.64-0.01,1.14-0.24,1.55-0.6l1.33,6.87l4.1-6.26
		l-0.35,3.95l3.1-1.98c0.49-0.31,0.98-0.58,1.47-0.85c0.77-0.42,1.52-0.84,2.17-1.36l-0.36,3.84l2.78-1.17
		c5.22-2.2,9.85-10.76,9.17-16.96C390.94,91.67,383.45,83.2,375.77,81.5z M168.29,366.97c2.36,1.52,4.71,3.28,7.26,5.45
		c-9.5-3.29-17.21-9.12-24-15.7C157.1,360.02,162.81,363.43,168.29,366.97z M262.97,152.86L262.97,152.86
		c1.74,0.37,3.51,0.66,5.22,0.95c6.25,1.03,12.14,2,16.8,6.57c1.04,1.02,1.3,1.56,1.37,1.75c-0.14,0.14-0.62,0.5-2.03,0.96
		c-9.68,3.17-16.8-1.57-24.34-6.58c-0.52-0.34-1.03-0.68-1.55-1.03C259.44,152.76,260.99,152.44,262.97,152.86z M236.71,118.21
		c-0.84,1.69-1.46,2.94-2.28,3.84c-0.31,0.06-1.05,0.03-1.93-0.16c-0.03-0.35-0.06-0.9-0.06-1.72c0-0.49,0.11-1.05,0.23-1.64
		c0.1-0.48,0.2-0.98,0.25-1.51c0.07-0.62,0.03-1.25,0-1.85c-0.02-0.41-0.06-1.05-0.01-1.39c0.12-0.01,0.33,0,0.64,0.05
		c0.84,0.13,1.89,1.05,3,2.02c0.3,0.26,0.61,0.53,0.93,0.8C237.21,117.2,236.95,117.72,236.71,118.21z M250.5,120.19
		c-0.5,0.44-1.01,0.9-1.52,1.37c-0.36-0.28-0.7-0.54-1-0.76c-0.44-0.33-0.97-0.73-1.22-0.97c-0.21-4.99-2.48-8.91-4.67-12.71
		c-0.98-1.7-1.91-3.31-2.66-5c-0.43-0.98-0.27-3.31,0.06-4.19c1.42-0.43,3.71-0.2,5.63,0.59c0.36,0.15,0.96,1.32,1.31,2.03
		c0.33,0.64,0.66,1.3,1.07,1.91c0.62,0.91,1.27,1.82,1.89,2.7c1.28,1.79,2.48,3.47,3.52,5.28l0.33,0.58
		c0.58,1.01,1.93,3.32,1.96,4.17C254.15,116.94,252.46,118.45,250.5,120.19z M294.71,108.6c-0.58,0.89-2.01,1.3-3.1,1.49
		c-2.66,0.46-5.43,0.73-8.11,0.99c-1.2,0.12-2.41,0.23-3.61,0.37l-0.24,0.04c-6.59,1.65-9.54-2.24-12.95-6.75
		c-1.12-1.48-2.28-3.01-3.59-4.34c-1.4-1.42-2.5-3.19-3.66-5.07c-0.28-0.46-0.57-0.91-0.85-1.36c-1.67-2.62-2.15-5.11-1.31-6.81
		c0.76-1.56,2.69-2.55,5.41-2.8c0.95-0.09,1.93-0.2,2.87-0.32c1.94-0.23,3.84-0.46,5.68-0.46c3.23,0,6.24,0.71,8.87,3.37
		c0.95,0.96,2.26,0.67,3.13,0.48c0.23-0.05,0.6-0.13,0.77-0.14c0.69,0.25,1.46,0.47,2.2,0.69c1.29,0.38,3.97,1.17,4.26,1.85
		c1.65,3.84,2.59,8.17,3.5,12.35c0.29,1.35,0.6,2.74,0.92,4.11C295.12,107.29,295.07,108.05,294.71,108.6z M344.58,101.08
		L344.58,101.08c-0.72,1.49-3.83,3.18-6.38,3.48c-7.78,0.92-15.77,1.11-23.29,1.24c-4.55,0.07-7.41-0.11-8.56-1.24
		c-1.17-1.15-1.39-4-1.39-8.86c0-0.55,0-1.09,0.01-1.64c0.01-1.2,0.01-2.44-0.01-3.68c-0.02-0.88,0.1-2.05,0.76-2.66
		c0.38-0.35,0.95-0.52,1.71-0.52c0.19,0,0.39,0.01,0.6,0.03l1.15,0.12c6.65,0.68,13.52,1.38,20.15,2.59
		c3.81,0.7,7.85,2.04,11.99,3.99c1.7,0.8,2.98,2.12,3.51,3.62C345.21,98.71,345.13,99.94,344.58,101.08z M376.67,91.88
		c-0.7,0.15-1.4,0.31-2.11,0.48c-3.45,0.79-7.02,1.61-10.31,1.42c-0.51-0.12-1.73-1.71-2.53-2.77c-0.3-0.39-0.61-0.8-0.94-1.22
		c0.18-0.09,0.36-0.18,0.54-0.26c1.27-0.62,2.37-1.15,3.1-1.12c3.89,0.23,7.78,1.08,11.75,2c0.28,0.07,0.78,0.47,1.09,0.89
		C377.08,91.53,376.83,91.78,376.67,91.88z"/>
</g>
</svg>
