<?xml version="1.0" encoding="utf-8"?>
<!-- Generator: Adobe Illustrator 27.7.0, SVG Export Plug-In . SVG Version: 6.00 Build 0)  -->
<svg version="1.1" id="Layer_1" xmlns="http://www.w3.org/2000/svg" xmlns:xlink="http://www.w3.org/1999/xlink" x="0px" y="0px"
	 viewBox="0 0 37 50" style="enable-background:new 0 0 37 50;" xml:space="preserve">
<style type="text/css">
	.st0{fill:#013976;}
	.st1{fill:#FFFFFF;}
	.st2{fill:#FEFEFF;}
	.st3{fill:#F28A97;}
	.st4{fill:#EB001D;}
</style>
<g>
	<g>
		<path class="st0" d="M18.03,47.73c-1.66-3.05-5.23-3.87-8.67-4.67c-3.5-0.81-6.8-1.57-8.06-4.56C0.56,37.08,0.77,13.75,0.84,6.63
			l0.01-1.23l0.96,0.77c1.61,1.29,3.5,1.94,5.61,1.94c3.96,0,8.26-2.39,10.7-5.94l0.54-0.79l0.47,0.83
			c1.9,3.38,6.33,5.83,10.53,5.83c2.19,0,4.11-0.66,5.58-1.92l0.99-0.85l-0.08,32.86c-0.18,1.36-1.03,2.51-2.35,3.25
			c-1.84,0.95-3.94,1.43-5.97,1.89c-3.5,0.8-6.81,1.55-8.79,4.51l-0.55,0.82L18.03,47.73z"/>
		<path class="st1" d="M18.62,2.51c2.04,3.62,6.7,6.13,11.05,6.13c2.18,0,4.29-0.63,5.96-2.06l-0.08,31.55
			c-0.16,1.2-1.02,2.16-2.04,2.73c-4.82,2.49-11.63,1.62-14.96,6.59c-3.49-6.4-14.36-3.61-16.71-9.17C1.1,36.83,1.44,6.64,1.44,6.64
			c1.81,1.45,3.88,2.07,5.99,2.07C11.74,8.71,16.17,6.08,18.62,2.51 M18.72,0.26l-1.08,1.58c-2.33,3.4-6.43,5.68-10.21,5.68
			c-1.98,0-3.74-0.61-5.24-1.81L0.28,4.17L0.25,6.63c-0.13,11.21-0.22,30.1,0.51,32.11l0,0c1.38,3.26,4.99,4.1,8.48,4.9
			c3.32,0.77,6.75,1.56,8.28,4.37l0.94,1.73l1.1-1.64c1.85-2.76,5.04-3.49,8.42-4.26c2.06-0.47,4.2-0.96,6.09-1.94
			c1.51-0.84,2.48-2.16,2.68-3.63l0.01-0.08l0-0.08l0.08-31.55l0.01-2.61l-1.98,1.7c-1.35,1.16-3.15,1.78-5.19,1.78
			c-4,0-8.21-2.32-10.01-5.52L18.72,0.26L18.72,0.26z"/>
	</g>
	<g>
		<g id="_x34_7kkC4.tif">
			<g>
				<path class="st1" d="M33.87,20.74c0.03,0.07,0.01,0.15,0.01,0.22c0.01,2.42,0.02,4.85,0.03,7.27c0.01,2.71,0.03,5.42,0.04,8.13
					c0,0.39-0.03,0.77-0.13,1.14c-0.14,0.51-0.38,0.97-0.74,1.35c-0.44,0.47-0.97,0.8-1.55,1.07c-0.67,0.31-1.37,0.52-2.08,0.71
					c-0.48,0.13-0.97,0.24-1.46,0.35c-0.67,0.15-1.34,0.29-2.01,0.43c-0.86,0.18-1.71,0.38-2.54,0.64c-0.56,0.17-1.13,0.36-1.66,0.6
					C21,43,20.25,43.42,19.59,43.99c-0.43,0.37-0.8,0.79-1.12,1.26c-0.07,0.1-0.07,0.1-0.15,0c-0.15-0.21-0.28-0.42-0.44-0.62
					c-0.26-0.32-0.54-0.61-0.85-0.88c-0.39-0.34-0.81-0.64-1.26-0.89c-0.38-0.21-0.78-0.4-1.19-0.57c-0.48-0.2-0.98-0.36-1.48-0.52
					c-0.4-0.13-0.81-0.23-1.22-0.33c-0.5-0.12-1-0.23-1.49-0.34c-0.29-0.06-0.58-0.11-0.86-0.18c-0.48-0.12-0.97-0.2-1.45-0.33
					c-0.59-0.16-1.18-0.3-1.75-0.51c-0.58-0.21-1.14-0.46-1.65-0.8c-0.58-0.38-1.05-0.88-1.39-1.49c-0.18-0.34-0.29-0.7-0.37-1.07
					c-0.08-0.37-0.1-0.75-0.1-1.13c0.02-4.88,0.05-9.77,0.07-14.65c0-0.07-0.01-0.14,0.02-0.2C13.23,20.74,23.55,20.74,33.87,20.74z
					 M27.93,35.84c0-0.06-0.01-0.11-0.01-0.17c0.01-3.56,0.03-7.11,0.03-10.67c0-0.11,0.04-0.18,0.12-0.25
					c0.25-0.19,0.49-0.4,0.75-0.59c0.08-0.06,0.11-0.12,0.1-0.22c-0.01-0.42-0.02-0.83-0.03-1.25c0-0.14-0.01-0.29,0-0.43
					c0-0.1-0.04-0.13-0.13-0.12c-0.03,0-0.06,0-0.09,0c-0.74,0.01-1.48,0.01-2.22,0.02c-0.7,0.01-1.4,0.01-2.09,0.02
					c-0.15,0-0.15,0-0.15,0.16c0,0.6,0,1.21,0,1.81c0,0.09,0.03,0.15,0.11,0.19c0.19,0.1,0.38,0.22,0.57,0.32
					c0.1,0.05,0.14,0.12,0.14,0.23c0,0.65,0.02,1.31,0.02,1.96c0.03,3.21,0.06,6.43,0.09,9.64c0,0.12-0.03,0.2-0.11,0.28
					c-0.19,0.21-0.36,0.45-0.56,0.65c-0.2,0.2-0.3,0.42-0.24,0.7c-0.02,0.05-0.02,0.1,0,0.15c0.01,0.24,0.02,0.47,0.03,0.71
					c-0.02,0.04-0.02,0.08,0,0.11c0.01,0.13,0,0.27,0.03,0.41c0.43-0.12,0.84-0.23,1.26-0.35c1.15-0.32,2.3-0.65,3.44-0.98
					c0.98-0.28,1.95-0.56,2.92-0.84c0.16-0.05,0.16-0.05,0.16-0.2c-0.01-0.59-0.02-1.18-0.03-1.77c-0.01-0.95-0.03-1.89-0.04-2.84
					c0-0.14,0-0.15-0.12-0.15c-0.55-0.01-1.11-0.02-1.66-0.04c-0.09,0-0.12,0.03-0.13,0.11c-0.03,0.37-0.07,0.74-0.1,1.12
					c-0.05,0.53-0.1,1.07-0.15,1.6c-0.01,0.1-0.05,0.13-0.14,0.16c-0.45,0.14-0.9,0.29-1.36,0.44c-0.13,0.04-0.24,0.11-0.38,0.1
					C27.95,35.86,27.94,35.85,27.93,35.84z M8.41,30.31c0.02,0.17,0.11,0.31,0.16,0.46c0.1,0.36,0.24,0.7,0.36,1.05
					c0.2,0.57,0.39,1.14,0.59,1.71c0.18,0.52,0.36,1.04,0.54,1.56c0.13,0.38,0.26,0.75,0.39,1.13c0.17,0.5,0.35,1,0.52,1.5
					c0.14,0.41,0.29,0.82,0.42,1.23c0.03,0.08,0.06,0.12,0.14,0.14c0.4,0.12,0.8,0.24,1.2,0.36c0.28,0.09,0.55,0.18,0.83,0.27
					c0.23,0.07,0.23,0.07,0.23-0.17c0.03-3.62,0.06-7.24,0.09-10.86c0.01-1.22,0.02-2.44,0.02-3.66c0-0.16,0.03-0.27,0.17-0.36
					c0.16-0.11,0.31-0.25,0.47-0.37c0.1-0.07,0.14-0.15,0.14-0.28c-0.01-0.57,0-1.13,0-1.7c0-0.04,0-0.07,0-0.11
					c0-0.05-0.02-0.08-0.08-0.08c-0.04,0-0.09,0-0.13,0c-0.69,0-1.37,0-2.06,0c-0.64,0-1.28,0-1.92,0c-0.22,0-0.19,0-0.19,0.2
					c0,0.56,0,1.12,0,1.68c0,0.13,0.03,0.2,0.15,0.26c0.24,0.13,0.47,0.28,0.71,0.4c0.11,0.06,0.15,0.13,0.16,0.26
					c0.01,1.64,0.02,3.29,0.03,4.93c0,0.5,0,1.01,0,1.51c-0.02,0-0.05,0-0.07,0c-0.04-0.11-0.07-0.22-0.11-0.32
					c-0.15-0.45-0.3-0.91-0.44-1.36c-0.15-0.48-0.31-0.95-0.46-1.42c-0.17-0.54-0.35-1.07-0.53-1.61c-0.18-0.57-0.37-1.13-0.55-1.7
					c-0.14-0.45-0.3-0.89-0.44-1.35c-0.1-0.33-0.22-0.66-0.33-0.99c-0.05-0.15-0.07-0.3-0.14-0.45c-0.03-0.07-0.06-0.09-0.14-0.09
					c-0.21,0.01-0.41,0.01-0.62,0.01c-0.88,0.01-1.77,0.02-2.65,0.02c-0.17,0-0.17,0-0.17,0.18c0.01,0.62,0.03,1.25,0.03,1.87
					c0,0.11,0.04,0.15,0.13,0.19c0.29,0.12,0.57,0.25,0.86,0.37c0.12,0.05,0.19,0.11,0.18,0.27c-0.01,0.76,0,1.52,0.01,2.28
					c0.02,2.6,0.04,5.21,0.06,7.81c0,0.22,0.03,0.18-0.18,0.26c-0.32,0.13-0.64,0.26-0.96,0.38c-0.09,0.04-0.14,0.08-0.13,0.19
					c0.01,0.27,0,0.55,0,0.82c0,0.2,0,0.4,0,0.6c0,0.06,0.01,0.09,0.09,0.11c0.67,0.18,1.35,0.33,2.03,0.51
					c0.77,0.21,1.55,0.39,2.33,0.58c0.17,0.04,0.17,0.04,0.16-0.12c-0.01-0.57-0.02-1.13-0.03-1.7c0-0.09-0.03-0.15-0.09-0.21
					c-0.24-0.24-0.47-0.49-0.71-0.74c-0.06-0.07-0.1-0.13-0.1-0.23c-0.01-1.74-0.02-3.49-0.03-5.23
					C8.36,30.31,8.38,30.31,8.41,30.31z M20.1,41.86c0.03-0.03,0.03-0.05,0.03-0.08c0-0.59,0-1.17,0-1.76c0-0.06-0.02-0.1-0.06-0.15
					c-0.26-0.28-0.51-0.56-0.77-0.84c-0.1-0.1-0.14-0.2-0.14-0.35c0-2.35,0-4.71,0-7.06c0-0.04,0-0.08,0-0.11
					c-0.01-0.09,0.04-0.11,0.12-0.11c0.39,0.01,0.78,0.02,1.18,0.03c0.1,0,0.16,0.03,0.22,0.11c0.18,0.23,0.36,0.46,0.54,0.69
					c0.04,0.06,0.09,0.09,0.17,0.09c0.31-0.01,0.62-0.02,0.93-0.03c0.14-0.01,0.14-0.01,0.14-0.15c0-0.47,0.01-0.93,0.01-1.4
					c0.01-0.8,0.02-1.61,0.03-2.41c0-0.15,0-0.15-0.14-0.15c-0.35-0.01-0.71-0.02-1.06-0.03c-0.09,0-0.14,0.02-0.18,0.1
					c-0.13,0.23-0.28,0.46-0.42,0.69c-0.03,0.05-0.06,0.11-0.14,0.11c-0.42,0.01-0.85,0.02-1.27,0.03c-0.08,0-0.09-0.03-0.09-0.1
					c0-0.11,0-0.21,0-0.32c0-1.29,0-2.58,0-3.87c0-0.17-0.02-0.17,0.16-0.16c0.51,0.02,1.02,0.05,1.53,0.07
					c0.07,0,0.11,0.03,0.14,0.1c0.06,0.16,0.12,0.31,0.19,0.46c0.13,0.27,0.25,0.54,0.35,0.82c0.03,0.09,0.08,0.14,0.19,0.14
					c0.21-0.01,0.41-0.01,0.62-0.01c0.29-0.01,0.57-0.01,0.86-0.02c0.16,0,0.16-0.01,0.16-0.15c0-0.02,0-0.05,0-0.07
					c0.01-1.16,0.02-2.33,0.03-3.49c0-0.25,0.04-0.23-0.22-0.23c-2.5,0-5,0-7.49,0c-0.04,0-0.07,0-0.11,0
					c-0.08-0.01-0.12,0.02-0.12,0.11c0.02,0.6,0.03,1.21,0.04,1.81c0,0.06,0.02,0.1,0.08,0.14c0.27,0.17,0.53,0.35,0.8,0.52
					c0.1,0.06,0.14,0.13,0.14,0.25c0,0.65,0.01,1.31,0.02,1.96c0.02,2.5,0.04,5,0.06,7.49c0.01,1.13,0.02,2.25,0.03,3.38
					c0,0.12-0.03,0.18-0.14,0.23c-0.26,0.12-0.51,0.25-0.77,0.36c-0.11,0.05-0.14,0.11-0.14,0.23c0.02,0.42,0.03,0.83,0.03,1.25
					c0.01,0.27,0,0.27,0.24,0.36c0.01,0,0.01,0.01,0.02,0.01c0.42,0.11,0.82,0.29,1.23,0.44c0.37,0.13,0.73,0.28,1.1,0.41
					c0.39,0.14,0.78,0.29,1.17,0.43C19.62,41.69,19.86,41.79,20.1,41.86z"/>
				<path class="st2" d="M19.12,9.4c0.48,0.06,0.91,0.25,1.24,0.62c0.02,0.03,0.05,0.05,0.08,0.08c0.1,0.08,0.13,0.08,0.22,0
					c0.09-0.08,0.19-0.15,0.26-0.27c-0.17-0.16-0.35-0.32-0.53-0.49c0.26-0.24,0.53-0.46,0.83-0.64c0.2-0.13,0.42-0.23,0.62-0.35
					c0.04-0.02,0.07-0.04,0.11-0.06c0.17-0.07,0.18-0.06,0.24,0.12c0.07,0.2,0.14,0.4,0.2,0.59c0.1,0.32,0.2,0.65,0.25,0.99
					c0.05,0.31,0.11,0.62,0.15,0.94c0.08,0.62,0.08,1.24-0.01,1.86c-0.08,0.59-0.24,1.16-0.47,1.71c-0.22,0.51-0.5,0.98-0.84,1.41
					c-0.32,0.41-0.69,0.79-1.09,1.12c-0.41,0.33-0.85,0.62-1.31,0.88c-0.52,0.29-1.06,0.51-1.61,0.7c-0.52,0.18-1.06,0.3-1.6,0.4
					c-0.04,0.01-0.07,0-0.11,0c-0.05-0.01-0.11-0.01-0.16,0.03c-0.09-0.01-0.16,0.05-0.25,0.03c-0.03-0.03-0.06-0.01-0.09,0.01
					l-0.02,0c0,0-0.02,0-0.02,0c-0.11,0-0.23-0.01-0.34,0.02c-0.01-0.01-0.01-0.02-0.01-0.03c0,0,0,0,0,0
					c0.01-0.25,0.08-0.49,0.12-0.74c0.07-0.41,0.19-0.81,0.27-1.22c0.03-0.14,0.07-0.27,0.11-0.41c0.11-0.32,0.19-0.65,0.32-0.97
					c0.22-0.54,0.46-1.06,0.77-1.56c0.06-0.1,0.08-0.11,0.19-0.05c0.18,0.1,0.38,0.15,0.55,0.25c0.08,0.04,0.12,0.02,0.16-0.06
					c0.06-0.12,0.13-0.24,0.19-0.36c0.03-0.06,0.02-0.1-0.03-0.14c-0.14-0.1-0.27-0.21-0.41-0.31c-0.18-0.13-0.4-0.19-0.6-0.26
					c-0.26-0.09-0.52-0.17-0.78-0.24c-0.07-0.02-0.1,0-0.13,0.06c-0.06,0.11-0.12,0.23-0.19,0.35c0.21,0.11,0.43,0.22,0.66,0.35
					c-0.77,1.64-1.27,3.37-1.65,5.15c-0.08-0.09-0.09-0.2-0.11-0.29c-0.24-1.11-0.39-2.23-0.37-3.37c0.01-0.37,0.02-0.75,0.09-1.12
					c0,0,0,0,0,0c0.02-0.45,0.15-0.89,0.27-1.32c0.19-0.73,0.53-1.39,0.95-2c0.29-0.43,0.65-0.81,1.05-1.15
					c0.42-0.35,0.87-0.65,1.36-0.89c0.58-0.28,1.19-0.49,1.83-0.6c0.15-0.03,0.3-0.07,0.45-0.09c0.02,0,0.03,0.01,0.04-0.01
					c0.06-0.01,0.13-0.02,0.19-0.02c0.03,0.01,0.07,0,0.1-0.02c0.48-0.06,0.97-0.09,1.46-0.09c-0.04,0.07-0.1,0.08-0.15,0.11
					c-0.34,0.17-0.68,0.36-0.98,0.59c-0.13,0.1-0.26,0.21-0.38,0.33c-0.04,0.04-0.08,0.09-0.14,0.11c-0.09-0.02-0.18-0.03-0.27-0.02
					c-0.04,0-0.08,0.01-0.11,0c-0.2-0.08-0.35,0.01-0.5,0.13c-0.07,0.05-0.14,0.1-0.21,0.14c-0.03,0.03,0,0.04,0.02,0.05
					C19.04,9.4,19.08,9.4,19.12,9.4z M17.96,13.34c0.11-0.16,0.22-0.29,0.31-0.44c0.08-0.11,0.07-0.12-0.03-0.22
					c-0.27-0.25-0.58-0.43-0.92-0.56c-0.3-0.11-0.6-0.23-0.91-0.31c-0.05-0.01-0.08-0.02-0.11,0.03c-0.07,0.14-0.15,0.27-0.2,0.42
					c0.34,0.11,0.67,0.23,0.98,0.41C17.4,12.86,17.68,13.09,17.96,13.34z M17.92,10.17c0.19,0.08,0.35,0.13,0.52,0.19
					c0.31,0.13,0.61,0.29,0.88,0.49c0.12,0.09,0.24,0.2,0.36,0.29c0.1,0.08,0.12,0.08,0.19-0.02c0.08-0.12,0.16-0.24,0.25-0.34
					c0.05-0.06,0.04-0.1-0.01-0.16c-0.23-0.22-0.5-0.4-0.8-0.53c-0.35-0.15-0.72-0.25-1.07-0.38c-0.06-0.02-0.09-0.01-0.12,0.05
					C18.05,9.9,17.99,10.02,17.92,10.17z M19.11,11.84c-0.18-0.2-0.38-0.36-0.61-0.49c-0.33-0.18-0.68-0.29-1.03-0.41
					c-0.12-0.04-0.26-0.14-0.36-0.09c-0.11,0.06-0.13,0.23-0.2,0.35c-0.01,0.01-0.01,0.02-0.02,0.03c-0.01,0.04-0.01,0.07,0.04,0.09
					c0.03,0.01,0.07,0.03,0.1,0.04c0.44,0.15,0.86,0.33,1.22,0.62c0.12,0.1,0.25,0.2,0.38,0.3c0.09,0.07,0.12,0.07,0.18-0.02
					C18.91,12.12,19.01,11.98,19.11,11.84z"/>
				<path class="st2" d="M9.63,19.24c0.03-0.19,0.11-0.36,0.16-0.54c0.07-0.26,0.15-0.52,0.23-0.77c0.01-0.02,0-0.04,0.01-0.05
					c0.07-0.21,0.08-0.21-0.1-0.33c-0.33-0.24-0.67-0.49-1-0.73c-0.05-0.04-0.1-0.07-0.14-0.11c0.03-0.06,0.08-0.04,0.12-0.04
					c0.46-0.01,0.92-0.02,1.38-0.02c0.15,0,0.14,0,0.19-0.15c0.18-0.47,0.3-0.95,0.49-1.42c0.08,0.04,0.07,0.13,0.1,0.19
					c0.14,0.4,0.28,0.81,0.41,1.21c0.05,0.16,0.05,0.16,0.22,0.16c0.47,0,0.93,0,1.4,0c0.03,0,0.07-0.01,0.12,0.02
					c-0.13,0.1-0.25,0.19-0.37,0.29c-0.27,0.21-0.55,0.41-0.82,0.61c-0.1,0.07-0.15,0.13-0.09,0.26c0.07,0.14,0.1,0.3,0.14,0.45
					c0.1,0.34,0.23,0.66,0.33,1.03c-0.25-0.18-0.48-0.34-0.7-0.5c-0.21-0.15-0.41-0.3-0.62-0.44c-0.06-0.04-0.09-0.03-0.14,0
					c-0.16,0.11-0.33,0.23-0.49,0.34c-0.23,0.17-0.47,0.34-0.7,0.51c0,0-0.01,0-0.01,0l0,0.01c-0.01,0.01-0.02,0.02-0.03,0.02
					C9.67,19.24,9.65,19.24,9.63,19.24z"/>
				<path class="st2" d="M24.4,16.64c0.26,0,0.52-0.01,0.78-0.01c0.09,0,0.14-0.02,0.16-0.11c0.04-0.21,0.13-0.39,0.19-0.59
					c0.07-0.25,0.15-0.5,0.23-0.74c0.02-0.05,0.05-0.09,0.06-0.13c0.01,0.02,0.03,0.01,0.04,0c0.14,0.49,0.33,0.97,0.48,1.46
					c0.03,0.09,0.07,0.11,0.15,0.11c0.46,0,0.92,0,1.38,0c0.06,0,0.12,0,0.18,0c0,0.07-0.04,0.08-0.07,0.1
					c-0.39,0.29-0.78,0.58-1.18,0.87c-0.07,0.05-0.08,0.09-0.05,0.17c0.1,0.29,0.19,0.59,0.29,0.88c0.06,0.16,0.08,0.34,0.16,0.49
					c0.02,0.04,0.02,0.08,0.01,0.14c-0.42-0.3-0.83-0.59-1.24-0.88c-0.13-0.09-0.13-0.09-0.26,0.01c-0.38,0.28-0.76,0.55-1.15,0.83
					c-0.03,0.02-0.06,0.05-0.11,0.04c0.03-0.1,0.06-0.2,0.09-0.29c0.1-0.27,0.17-0.55,0.27-0.82c0.05-0.13,0.08-0.26,0.11-0.39
					c0.02-0.07,0-0.13-0.06-0.18c-0.37-0.26-0.73-0.53-1.1-0.8c-0.05-0.04-0.1-0.08-0.14-0.11c0.06-0.03,0.13-0.02,0.2-0.02
					C24.01,16.65,24.2,16.65,24.4,16.64z"/>
				<path class="st2" d="M7.26,11.38c-0.05,0.09-0.11,0.13-0.17,0.17c-0.34,0.25-0.67,0.51-1.02,0.75
					c-0.14,0.09-0.15,0.12-0.08,0.29c0.11,0.28,0.17,0.57,0.28,0.85c0.07,0.19,0.15,0.38,0.18,0.6c-0.43-0.31-0.85-0.6-1.26-0.9
					c-0.13-0.09-0.13-0.09-0.27,0.01c-0.33,0.25-0.67,0.49-1.01,0.73C3.83,13.93,3.79,14.03,3.67,14c0.06-0.19,0.13-0.38,0.18-0.57
					c0.07-0.25,0.18-0.5,0.22-0.76c0-0.01,0-0.02,0.01-0.04c0.08-0.23,0.08-0.23-0.11-0.37c-0.37-0.26-0.73-0.52-1.1-0.79
					c-0.02-0.01-0.03-0.04-0.05-0.07c0.05-0.03,0.1-0.02,0.14-0.02c0.47,0,0.93-0.01,1.4-0.01c0.09,0,0.13-0.02,0.16-0.12
					c0.15-0.49,0.33-0.97,0.49-1.47C5.1,9.82,5.07,9.88,5.09,9.92c0.15,0.43,0.3,0.86,0.44,1.29c0.06,0.17,0.06,0.18,0.24,0.18
					c0.43,0,0.86,0,1.29,0C7.12,11.38,7.18,11.38,7.26,11.38z"/>
				<path class="st2" d="M33.15,14.03c-0.43-0.31-0.86-0.61-1.29-0.92c-0.08-0.06-0.15-0.02-0.2,0.02
					c-0.28,0.23-0.58,0.42-0.87,0.64c-0.09,0.07-0.19,0.14-0.28,0.21C30.48,14,30.45,14.02,30.4,14c0.06-0.18,0.12-0.36,0.17-0.55
					c0.09-0.31,0.19-0.62,0.29-0.92c0.03-0.08-0.01-0.14-0.08-0.19c-0.25-0.17-0.49-0.35-0.74-0.53c-0.17-0.12-0.33-0.25-0.51-0.38
					c0.06-0.04,0.11-0.03,0.15-0.03c0.47,0,0.93-0.01,1.4-0.01c0.09,0,0.13-0.02,0.16-0.12c0.13-0.38,0.23-0.77,0.38-1.14
					c0.05-0.11,0.03-0.23,0.12-0.34c0.08,0.14,0.1,0.3,0.15,0.44c0.12,0.32,0.23,0.65,0.34,0.98c0.06,0.17,0.06,0.17,0.24,0.18
					c0.43,0,0.86,0,1.29,0c0.06,0,0.12,0,0.2,0c-0.04,0.08-0.09,0.11-0.14,0.15c-0.34,0.25-0.69,0.51-1.04,0.76
					c-0.16,0.11-0.17,0.14-0.1,0.32c0.11,0.28,0.16,0.57,0.28,0.85c0.06,0.15,0.08,0.31,0.15,0.45
					C33.16,13.94,33.16,13.99,33.15,14.03z"/>
				<path class="st2" d="M31.79,15.06c0.13,0.41,0.26,0.81,0.4,1.22c0.03,0.08,0.05,0.16,0.07,0.24c0.02,0.08,0.07,0.11,0.16,0.11
					c0.42,0,0.85,0,1.27,0c0.1,0,0.2,0,0.33,0c-0.11,0.13-0.23,0.19-0.33,0.27c-0.3,0.23-0.61,0.46-0.92,0.69
					c-0.08,0.06-0.09,0.1-0.07,0.2c0.04,0.18,0.12,0.34,0.17,0.52c0.08,0.27,0.17,0.54,0.25,0.82c0.01,0.04,0.06,0.08,0.03,0.15
					c-0.05-0.03-0.09-0.06-0.14-0.1c-0.38-0.27-0.76-0.54-1.13-0.8c-0.07-0.05-0.11-0.06-0.19,0c-0.4,0.3-0.81,0.59-1.22,0.88
					c-0.02,0-0.04,0-0.06,0c-0.01-0.12,0.06-0.21,0.09-0.32c0.06-0.23,0.15-0.46,0.22-0.69c0.05-0.15,0.08-0.31,0.14-0.45
					c0.03-0.07,0.01-0.13-0.07-0.18c-0.42-0.3-0.82-0.61-1.23-0.91c0.06-0.03,0.12-0.02,0.18-0.03c0.16-0.01,0.32-0.01,0.48-0.01
					c0.28,0,0.56-0.01,0.84-0.01c0.16,0,0.15,0,0.21-0.15c0.16-0.47,0.32-0.95,0.48-1.42C31.76,15.07,31.78,15.08,31.79,15.06z"/>
				<path class="st2" d="M5.06,15.06c0.13,0.41,0.27,0.81,0.4,1.22c0,0.01,0.01,0.02,0.02,0.03c0.11,0.32,0.11,0.32,0.45,0.32
					c0.39,0,0.78,0,1.18,0c0.05,0,0.11,0,0.17,0.03c-0.16,0.12-0.32,0.24-0.48,0.36c-0.26,0.19-0.51,0.38-0.77,0.57
					c-0.06,0.04-0.07,0.08-0.05,0.15c0.03,0.13,0.07,0.25,0.12,0.38c0.12,0.36,0.23,0.72,0.35,1.09c0,0.01,0,0.02-0.01,0.05
					c-0.23-0.16-0.46-0.32-0.69-0.49c-0.21-0.15-0.41-0.29-0.62-0.44c-0.05-0.04-0.09-0.03-0.14,0.01c-0.41,0.3-0.82,0.59-1.23,0.89
					c-0.02,0-0.04,0-0.06,0c0-0.13,0.07-0.25,0.1-0.37c0.09-0.31,0.21-0.62,0.29-0.93c0.02-0.09,0.1-0.17,0.06-0.26
					c-0.04-0.09-0.15-0.14-0.23-0.2c-0.36-0.26-0.72-0.53-1.08-0.79c0.06-0.03,0.12-0.02,0.18-0.03c0.16-0.01,0.32-0.01,0.48-0.01
					c0.3-0.01,0.6-0.01,0.89-0.01c0.09,0,0.13-0.03,0.16-0.11c0.13-0.5,0.31-0.98,0.48-1.46C5.03,15.07,5.05,15.08,5.06,15.06z"/>
				<path class="st2" d="M25.84,9.82c0.16,0.47,0.32,0.93,0.47,1.39c0.06,0.17,0.06,0.17,0.23,0.17c0.44,0,0.87,0,1.31,0
					c0.06,0,0.12,0,0.21,0c-0.14,0.16-0.31,0.25-0.45,0.37c-0.26,0.2-0.52,0.4-0.79,0.59c-0.08,0.06-0.1,0.12-0.06,0.22
					c0.17,0.43,0.26,0.89,0.43,1.32c0.02,0.04,0.03,0.08,0,0.14c-0.11-0.08-0.21-0.15-0.32-0.22c-0.3-0.21-0.61-0.43-0.91-0.65
					c-0.09-0.06-0.15-0.07-0.24,0c-0.36,0.27-0.72,0.52-1.08,0.78c-0.05,0.04-0.1,0.1-0.19,0.08c0.08-0.26,0.16-0.52,0.25-0.77
					c0.07-0.23,0.12-0.46,0.22-0.68c0.04-0.1-0.01-0.17-0.09-0.22c-0.24-0.17-0.47-0.34-0.71-0.51c-0.17-0.13-0.34-0.25-0.5-0.42
					c0.05,0,0.09,0,0.14,0c0.46,0,0.92-0.01,1.38-0.01c0.1,0,0.14-0.02,0.17-0.13c0.14-0.46,0.31-0.92,0.46-1.37
					C25.79,9.86,25.8,9.84,25.84,9.82z"/>
				<path class="st2" d="M9.62,14c0.09-0.33,0.2-0.66,0.3-0.98c0.06-0.17,0.1-0.35,0.16-0.52c0.02-0.06,0.01-0.09-0.04-0.13
					c-0.34-0.25-0.68-0.49-1.02-0.74c-0.09-0.06-0.17-0.13-0.25-0.23c0.05,0,0.09,0,0.14,0c0.46,0,0.92-0.01,1.38-0.01
					c0.14,0,0.13,0,0.17-0.15c0.03-0.1,0.07-0.19,0.11-0.29c0.13-0.34,0.21-0.7,0.34-1.04c0.02-0.04,0.04-0.07,0.07-0.13
					c0.06,0.17,0.11,0.32,0.16,0.47c0.11,0.32,0.22,0.65,0.33,0.97c0.05,0.16,0.06,0.16,0.22,0.16c0.44,0,0.87,0,1.31,0
					c0.06,0,0.12,0,0.2,0c-0.01,0.08-0.07,0.1-0.11,0.12c-0.36,0.27-0.73,0.54-1.1,0.82c-0.12,0.09-0.12,0.09-0.07,0.24
					c0.1,0.32,0.21,0.63,0.31,0.95c0.05,0.17,0.1,0.33,0.15,0.53c-0.35-0.28-0.7-0.49-1.02-0.74c-0.09-0.07-0.19-0.12-0.27-0.2
					c-0.07-0.06-0.14-0.04-0.2,0c-0.23,0.17-0.47,0.34-0.7,0.51c-0.17,0.13-0.35,0.25-0.53,0.38C9.65,14,9.64,14,9.62,14z"/>
				<path class="st2" d="M33.87,20.74c-10.32,0-20.64,0-30.96,0c0.04-0.07,0.11-0.03,0.17-0.03c0.65,0,1.3,0,1.94,0
					c9.47,0,18.95,0,28.42,0c0.11,0,0.22,0,0.34,0C33.82,20.7,33.86,20.68,33.87,20.74z"/>
				<path class="st3" d="M24.4,16.64c-0.19,0.01-0.38,0.01-0.58,0.02c-0.07,0-0.13-0.01-0.2,0.02c-0.01-0.03,0.01-0.03,0.03-0.03
					C23.9,16.65,24.15,16.64,24.4,16.64z"/>
				<path class="st3" d="M3.5,16.64c-0.16,0-0.32,0.01-0.48,0.01c-0.06,0-0.12-0.01-0.18,0.03c-0.01-0.05,0.03-0.03,0.04-0.03
					C3.08,16.65,3.29,16.64,3.5,16.64z"/>
				<path class="st3" d="M30.23,16.64c-0.16,0-0.32,0.01-0.48,0.01c-0.06,0-0.12-0.01-0.18,0.03c-0.01-0.05,0.03-0.03,0.04-0.03
					C29.81,16.65,30.02,16.64,30.23,16.64z"/>
				<path class="st3" d="M14.88,19.11c0.11-0.02,0.23-0.02,0.34-0.02C15.11,19.1,15,19.14,14.88,19.11z"/>
				<path class="st3" d="M19.12,9.4c-0.04,0-0.08,0-0.12-0.01c-0.02,0-0.05-0.01-0.02-0.05C19.01,9.4,19.08,9.38,19.12,9.4z"/>
				<path class="st3" d="M19.8,9.07c0.09-0.01,0.18,0,0.27,0.02C19.97,9.13,19.89,9.09,19.8,9.07z"/>
				<path class="st3" d="M20.26,8.04c-0.03,0.01-0.06,0.02-0.1,0.02C20.19,8.04,20.22,8.03,20.26,8.04z"/>
				<path class="st3" d="M3.69,19.24c0.02,0,0.04,0,0.06,0c-0.01,0.03-0.04,0.04-0.07,0.03C3.67,19.27,3.67,19.25,3.69,19.24z"/>
				<path class="st3" d="M9.63,19.24c0.02,0,0.04,0,0.06,0c-0.01,0.03-0.04,0.05-0.07,0.04C9.61,19.27,9.6,19.25,9.63,19.24z"/>
				<path class="st3" d="M30.42,19.24c0.02,0,0.04,0,0.06,0c-0.01,0.03-0.04,0.04-0.07,0.03C30.4,19.27,30.4,19.25,30.42,19.24z"/>
				<path class="st3" d="M15.6,19.05c0.05-0.03,0.1-0.03,0.16-0.03C15.71,19.05,15.66,19.06,15.6,19.05z"/>
				<path class="st3" d="M19.97,8.08c-0.01,0.02-0.03,0.02-0.04,0.01C19.94,8.07,19.95,8.07,19.97,8.08z"/>
				<path class="st3" d="M31.79,15.06c-0.01,0.02-0.03,0.01-0.04,0C31.77,15.03,31.78,15.03,31.79,15.06z"/>
				<path class="st3" d="M5.06,15.06c-0.01,0.02-0.03,0.01-0.04,0C5.04,15.03,5.05,15.03,5.06,15.06z"/>
				<path class="st3" d="M9.62,14c0.02-0.01,0.03,0,0.04,0.01c-0.01,0.02-0.02,0.03-0.04,0.03C9.61,14.03,9.6,14.02,9.62,14z"/>
				<path class="st3" d="M25.85,15.05c-0.01,0.02-0.02,0.02-0.04,0C25.83,15.03,25.84,15.03,25.85,15.05z"/>
				<path class="st3" d="M15.26,19.09c0.03-0.02,0.06-0.04,0.09-0.01C15.32,19.09,15.29,19.1,15.26,19.09z"/>
				<polygon class="st3" points="9.72,19.22 9.72,19.21 9.73,19.21 9.73,19.22 				"/>
				<path class="st3" d="M14.01,14.14C14.01,14.14,14.01,14.14,14.01,14.14C14.01,14.14,14.01,14.14,14.01,14.14z"/>
				<path class="st4" d="M11.36,31.39c0-0.5,0-1.01,0-1.51c-0.01-1.64-0.02-3.29-0.03-4.93c0-0.13-0.04-0.2-0.16-0.26
					c-0.24-0.13-0.47-0.28-0.71-0.4c-0.12-0.06-0.15-0.14-0.15-0.26c0.01-0.56,0-1.12,0-1.68c0-0.19-0.03-0.2,0.19-0.2
					c0.64,0,1.28,0,1.92,0c0.69,0,1.37,0,2.06,0c0.04,0,0.09,0,0.13,0c0.05,0,0.08,0.02,0.08,0.08c0,0.04,0,0.07,0,0.11
					c0,0.57,0,1.13,0,1.7c0,0.13-0.04,0.21-0.14,0.28c-0.16,0.12-0.31,0.26-0.47,0.37c-0.14,0.09-0.17,0.2-0.17,0.36
					c0,1.22-0.01,2.44-0.02,3.66c-0.03,3.62-0.06,7.24-0.09,10.86c0,0.24,0,0.24-0.23,0.17c-0.28-0.09-0.55-0.18-0.83-0.27
					c-0.4-0.12-0.8-0.25-1.2-0.36c-0.08-0.02-0.12-0.06-0.14-0.14c-0.13-0.41-0.28-0.82-0.42-1.23c-0.17-0.5-0.35-1-0.52-1.5
					c-0.13-0.38-0.26-0.75-0.39-1.13c-0.18-0.52-0.36-1.04-0.54-1.56c-0.2-0.57-0.4-1.14-0.59-1.71c-0.12-0.35-0.26-0.69-0.36-1.05
					c-0.04-0.16-0.14-0.3-0.16-0.46c0-0.05-0.01-0.09-0.06-0.12c-0.03,0.04-0.02,0.08-0.01,0.12c0.01,1.74,0.02,3.49,0.03,5.23
					c0,0.1,0.03,0.16,0.1,0.23c0.24,0.24,0.47,0.49,0.71,0.74c0.06,0.06,0.09,0.12,0.09,0.21c0.01,0.57,0.02,1.13,0.03,1.7
					c0,0.17,0,0.16-0.16,0.12c-0.78-0.19-1.56-0.37-2.33-0.58c-0.67-0.18-1.35-0.34-2.03-0.51C4.71,37.43,4.7,37.4,4.7,37.34
					c0-0.2,0-0.4,0-0.6c0-0.27,0.01-0.55,0-0.82c0-0.11,0.04-0.15,0.13-0.19c0.32-0.12,0.64-0.25,0.96-0.38
					c0.21-0.08,0.19-0.04,0.18-0.26c-0.02-2.6-0.04-5.21-0.06-7.81C5.91,26.52,5.9,25.76,5.91,25c0-0.16-0.06-0.22-0.18-0.27
					c-0.29-0.12-0.57-0.25-0.86-0.37c-0.09-0.04-0.13-0.08-0.13-0.19c-0.01-0.62-0.02-1.25-0.03-1.87c0-0.17,0-0.17,0.17-0.18
					c0.88-0.01,1.77-0.02,2.65-0.02c0.21,0,0.41,0,0.62-0.01c0.07,0,0.1,0.02,0.14,0.09c0.07,0.14,0.09,0.3,0.14,0.45
					c0.12,0.33,0.24,0.65,0.33,0.99c0.13,0.45,0.29,0.9,0.44,1.35c0.18,0.57,0.37,1.13,0.55,1.7c0.17,0.54,0.36,1.07,0.53,1.61
					c0.15,0.48,0.32,0.95,0.46,1.42c0.14,0.46,0.29,0.91,0.44,1.36c0.04,0.11,0.07,0.22,0.11,0.32c0.02,0.05-0.01,0.12,0.07,0.14
					C11.37,31.48,11.37,31.44,11.36,31.39z"/>
				<path class="st4" d="M20.1,41.86c-0.24-0.07-0.47-0.17-0.72-0.26c-0.39-0.14-0.78-0.28-1.17-0.43c-0.37-0.13-0.73-0.28-1.1-0.41
					c-0.41-0.15-0.81-0.33-1.23-0.44c-0.01,0-0.01-0.01-0.02-0.01c-0.23-0.09-0.23-0.09-0.24-0.36c-0.01-0.42-0.02-0.83-0.03-1.25
					c0-0.12,0.03-0.18,0.14-0.23c0.26-0.11,0.51-0.25,0.77-0.36c0.11-0.05,0.14-0.11,0.14-0.23c-0.01-1.13-0.02-2.25-0.03-3.38
					c-0.02-2.5-0.04-5-0.06-7.49c-0.01-0.65-0.02-1.31-0.02-1.96c0-0.12-0.04-0.19-0.14-0.25c-0.27-0.17-0.53-0.34-0.8-0.52
					c-0.05-0.03-0.07-0.07-0.08-0.14c-0.01-0.6-0.02-1.21-0.04-1.81c0-0.09,0.04-0.12,0.12-0.11c0.04,0,0.07,0,0.11,0
					c2.5,0,5,0,7.49,0c0.26,0,0.23-0.02,0.22,0.23c-0.01,1.16-0.02,2.33-0.03,3.49c0,0.02,0,0.05,0,0.07c0,0.15,0,0.15-0.16,0.15
					c-0.29,0.01-0.57,0.01-0.86,0.02c-0.21,0-0.41,0-0.62,0.01c-0.11,0-0.16-0.05-0.19-0.14c-0.1-0.28-0.23-0.55-0.35-0.82
					c-0.07-0.15-0.13-0.31-0.19-0.46c-0.03-0.07-0.06-0.09-0.14-0.1c-0.51-0.02-1.02-0.05-1.53-0.07c-0.17-0.01-0.16-0.01-0.16,0.16
					c0,1.29,0,2.58,0,3.87c0,0.11,0,0.21,0,0.32c0,0.07,0.01,0.1,0.09,0.1c0.42-0.01,0.85-0.03,1.27-0.03c0.08,0,0.1-0.06,0.14-0.11
					c0.14-0.23,0.28-0.46,0.42-0.69c0.04-0.07,0.09-0.1,0.18-0.1c0.35,0.01,0.71,0.02,1.06,0.03c0.14,0,0.14,0.01,0.14,0.15
					c-0.01,0.8-0.02,1.61-0.03,2.41c0,0.47-0.01,0.93-0.01,1.4c0,0.14,0,0.15-0.14,0.15c-0.31,0.01-0.62,0.02-0.93,0.03
					c-0.08,0-0.12-0.03-0.17-0.09c-0.18-0.23-0.36-0.46-0.54-0.69c-0.06-0.08-0.12-0.11-0.22-0.11c-0.39-0.01-0.78-0.01-1.18-0.03
					c-0.09,0-0.13,0.02-0.12,0.11c0,0.04,0,0.07,0,0.11c0,2.35,0,4.71,0,7.06c0,0.14,0.04,0.24,0.14,0.35
					c0.26,0.27,0.51,0.56,0.77,0.84c0.04,0.05,0.06,0.09,0.06,0.15c0,0.59,0,1.17,0,1.76C20.13,41.81,20.13,41.83,20.1,41.86z"/>
				<path class="st4" d="M24.26,38.98c-0.01-0.24-0.02-0.47-0.03-0.71c0.02-0.05,0.02-0.1,0-0.15c-0.06-0.28,0.03-0.5,0.24-0.7
					c0.2-0.2,0.37-0.43,0.56-0.65c0.08-0.08,0.11-0.17,0.11-0.28c-0.03-3.21-0.06-6.43-0.09-9.64c-0.01-0.65-0.02-1.31-0.02-1.96
					c0-0.11-0.03-0.18-0.14-0.23c-0.19-0.1-0.38-0.22-0.57-0.32c-0.08-0.04-0.11-0.1-0.11-0.19c0-0.6,0-1.21,0-1.81
					c0-0.15,0-0.15,0.15-0.16c0.7-0.01,1.4-0.01,2.09-0.02c0.74-0.01,1.48-0.01,2.22-0.02c0.03,0,0.06,0,0.09,0
					c0.09-0.01,0.14,0.02,0.13,0.12c-0.01,0.14,0,0.29,0,0.43c0.01,0.42,0.02,0.83,0.03,1.25c0,0.1-0.02,0.16-0.1,0.22
					c-0.25,0.19-0.5,0.4-0.75,0.59C28,24.82,27.96,24.89,27.96,25c-0.01,3.56-0.02,7.11-0.03,10.67c0,0.06,0.01,0.11,0.01,0.17
					c-0.01,0.03,0,0.03,0.03,0.03c0.14,0.01,0.26-0.06,0.38-0.1c0.45-0.15,0.9-0.3,1.36-0.44c0.09-0.03,0.13-0.06,0.14-0.16
					c0.04-0.53,0.1-1.07,0.15-1.6c0.03-0.37,0.07-0.74,0.1-1.12c0.01-0.09,0.04-0.12,0.13-0.11c0.55,0.01,1.11,0.02,1.66,0.04
					c0.12,0,0.12,0.01,0.12,0.15c0.01,0.95,0.03,1.89,0.04,2.84c0.01,0.59,0.02,1.18,0.03,1.77c0,0.16,0,0.16-0.16,0.2
					c-0.97,0.28-1.95,0.56-2.92,0.84c-1.15,0.33-2.29,0.65-3.44,0.98c-0.41,0.12-0.83,0.23-1.26,0.35
					c-0.03-0.14-0.02-0.28-0.03-0.41C24.28,39.05,24.28,39.01,24.26,38.98z"/>
				<path class="st2" d="M11.36,31.39c0.01,0.05,0.01,0.09,0,0.14c-0.08-0.02-0.05-0.09-0.07-0.14
					C11.31,31.39,11.33,31.39,11.36,31.39z"/>
				<path class="st3" d="M24.22,38.12c0.02,0.05,0.02,0.1,0,0.15C24.2,38.22,24.2,38.17,24.22,38.12z"/>
				<path class="st3" d="M24.26,38.98c0.02,0.04,0.02,0.07,0,0.11C24.24,39.05,24.24,39.01,24.26,38.98z"/>
				<path class="st3" d="M8.34,30.31c-0.01-0.04-0.02-0.08,0.01-0.12c0.05,0.03,0.06,0.07,0.06,0.12
					C8.38,30.31,8.36,30.31,8.34,30.31z"/>
				<path class="st2" d="M27.96,35.87c-0.02,0-0.04,0-0.03-0.03C27.94,35.85,27.95,35.86,27.96,35.87z"/>
				<path class="st0" d="M17.96,13.34c-0.27-0.25-0.56-0.48-0.87-0.66c-0.31-0.18-0.64-0.3-0.98-0.41c0.04-0.15,0.13-0.28,0.2-0.42
					c0.02-0.05,0.05-0.04,0.11-0.03c0.31,0.08,0.61,0.2,0.91,0.31c0.34,0.12,0.65,0.31,0.92,0.56c0.1,0.1,0.11,0.1,0.03,0.22
					C18.17,13.05,18.07,13.18,17.96,13.34z"/>
				<path class="st0" d="M17.92,10.17c0.07-0.14,0.14-0.27,0.2-0.4c0.03-0.05,0.05-0.07,0.12-0.05c0.36,0.13,0.72,0.23,1.07,0.38
					c0.3,0.13,0.56,0.3,0.8,0.53c0.05,0.05,0.06,0.09,0.01,0.16c-0.09,0.11-0.16,0.23-0.25,0.34c-0.07,0.1-0.09,0.1-0.19,0.02
					c-0.12-0.1-0.24-0.2-0.36-0.29c-0.27-0.21-0.57-0.36-0.88-0.49C18.27,10.29,18.1,10.24,17.92,10.17z"/>
				<path class="st0" d="M19.11,11.84c-0.1,0.14-0.2,0.28-0.3,0.42c-0.06,0.09-0.09,0.09-0.18,0.02c-0.12-0.1-0.25-0.2-0.38-0.3
					c-0.36-0.3-0.78-0.48-1.22-0.62c-0.03-0.01-0.07-0.03-0.1-0.04c-0.05-0.01-0.05-0.05-0.04-0.09c0-0.01,0.01-0.02,0.02-0.03
					c0.07-0.12,0.09-0.29,0.2-0.35c0.1-0.05,0.24,0.05,0.36,0.09c0.35,0.12,0.7,0.23,1.03,0.41C18.73,11.48,18.93,11.64,19.11,11.84
					z"/>
			</g>
		</g>
	</g>
</g>
</svg>
