<?xml version="1.0" encoding="utf-8"?>
<!-- Generator: Adobe Illustrator 27.7.0, SVG Export Plug-In . SVG Version: 6.00 Build 0)  -->
<svg version="1.1" id="Layer_1" xmlns="http://www.w3.org/2000/svg" xmlns:xlink="http://www.w3.org/1999/xlink" x="0px" y="0px"
	 viewBox="0 0 600 126" style="enable-background:new 0 0 600 126;" xml:space="preserve">
<style type="text/css">
	.st0{fill:none;}
	.st1{fill:#FFFFFF;}
	.st2{fill:#FD0000;}
</style>
<path class="st0" d="M508.56,34.42c0,5.18,0.05,10.37,0.16,15.55c0.11,5.18,0.24,10.37,0.38,15.55c0.73-0.15,1.31-0.26,1.75-0.33
	c5.62-5.26,8.65-10.73,9.09-16.43C520.39,43.07,516.6,38.29,508.56,34.42z"/>
<path class="st0" d="M326.91,34.42c0,5.18,0.06,10.37,0.17,15.55c0.11,5.18,0.24,10.37,0.38,15.55c0.73-0.15,1.31-0.26,1.75-0.33
	c5.62-5.26,8.65-10.73,9.09-16.43C338.73,43.07,334.94,38.29,326.91,34.42z"/>
<path class="st1" d="M35.28,89.01c-5.11-7.63-7.76-15.75-7.94-24.37c-0.18-8.61,2.06-16.94,6.74-24.97
	c4.67-8.03,11.75-14.16,21.25-18.4c-0.51-3.29-2.87-6.72-7.06-10.29c-4.2-3.58-7.47-6.57-9.8-8.98c-6.57,0-12.69,4.38-18.34,13.14
	c-5.66,8.76-9.69,15.66-12.1,20.7C3.34,52.27,2.77,68.82,6.31,85.5c3.54,16.68,13.31,29.51,29.3,38.5
	c4.53-1.31,8.54-3.56,12.05-6.73c3.5-3.18,7.01-6.3,10.51-9.36v-1.15v-1.15C48.02,102.17,40.39,96.64,35.28,89.01z M40.93,109.05
	l-0.14,0.38c-0.39,1.06-1.73,1.72-4.23,2.05l-0.33,0.04l-0.22-0.25C23.51,97.38,16.03,83.36,13.8,69.62
	c-2.24-13.79,2.05-28.91,12.75-44.96c1.66-1.83,3.29-3.61,4.93-5.44c1.64-1.82,3.36-3.64,5.11-5.39l0.18-0.18h3.08v3.3l-0.18,0.18
	c-14.99,15.06-22.51,30.4-22.35,45.57c0.16,15.18,8.01,30.68,23.33,46.08L40.93,109.05z"/>
<path class="st1" d="M111.63,90.16c-2.85,0.37-5.68,0.66-8.49,0.88c-2.81,0.22-5.6,0.44-8.38,0.66c-4.82,0-10.08-0.07-15.77-0.22
	c-0.22-2.63-0.38-5.27-0.49-7.94c-0.11-2.67-0.2-5.31-0.27-7.94c0-16.87,0.18-30.1,0.55-39.7c0.37-9.6,0.44-14.91,0.22-15.93
	c-3.14,0-6.26-0.04-9.36-0.11c-3.1-0.07-6.15-0.15-9.14-0.22v5.59c0,2.7,0.04,4.67,0.11,5.91c0.58,12.78,0.71,25.79,0.38,39.04
	c-0.33,13.25-0.75,26.23-1.26,38.93c8.54-0.15,17.18-0.26,25.9-0.33c8.72-0.07,17.47,0.22,26.23,0.88
	c-0.07-3.21-0.13-6.44-0.16-9.69C111.65,96.71,111.63,93.45,111.63,90.16z M105.46,101.63l-37.39-0.34v-2.7
	c0-11.88,0.04-23.89,0.11-35.7l0.22-36.43h0.62c0.25,0,0.54-0.03,0.86-0.1l1.84-0.37v71.98h33.73V101.63z"/>
<path class="st1" d="M142.97,36.17c10.29,0,17.16,0.18,20.59,0.55c3.43,0.37,5.48,0.44,6.13,0.22c0-3.14,0.02-6.3,0.05-9.47
	c0.04-3.18,0.09-6.33,0.16-9.47c-0.66,0-1.83,0.04-3.5,0.11c-1.68,0.07-2.85,0.11-3.5,0.11c-7.67,0.66-14.84,0.93-21.52,0.82
	c-6.68-0.11-13.31-0.24-19.88-0.38c0,1.1,0.04,3.05,0.11,5.86c0.07,2.81,0.11,4.87,0.11,6.19c0.58,13.36,0.73,26.69,0.44,39.97
	c-0.29,13.29-0.69,26.61-1.2,39.97c9.35-0.22,17.47-0.07,24.37,0.44c6.9,0.51,15.02,0.62,24.37,0.33c0-3.14,0.02-6.3,0.05-9.47
	c0.04-3.18,0.09-6.33,0.16-9.47c-0.66,0-1.83,0.04-3.5,0.11c-1.68,0.07-2.85,0.11-3.5,0.11c-5.11,0.44-8.96,0.64-11.55,0.6
	c-2.59-0.04-6.41-0.16-11.44-0.38c-0.15-2.63-0.27-5.24-0.38-7.83c-0.11-2.59-0.24-5.2-0.38-7.83c0-0.66,0.02-1.33,0.05-2.03
	c0.04-0.69,0.05-1.41,0.05-2.14c7.45,0.07,12.07,0.29,13.85,0.66c1.79,0.37,2.94,0.4,3.45,0.11c0-3.14,0.02-6.28,0.05-9.42
	c0.04-3.14,0.05-6.28,0.05-9.42c-1.97,0-3.76,0.07-5.37,0.22c-3.29,0.37-5.31,0.57-6.08,0.6c-0.77,0.04-2.72-0.02-5.86-0.16
	c0.07-7.3,0.18-13.73,0.33-19.27C140.42,36.39,141.51,36.31,142.97,36.17z M148.9,63.15l0.34,3.43h-16.38v33.8l27.75,0.33l0.35,3.33
	H129.2l0.33-78.14l31.09,0.34l0.34,3.44h-28.1v33.14L148.9,63.15z"/>
<path class="st1" d="M230.93,14.38c-0.66,1.02-2.45,6.5-5.37,16.43c-2.92,9.93-7.3,23.55-13.14,40.85
	c-5.84-17.3-10.24-30.92-13.2-40.85c-2.96-9.93-4.73-15.4-5.31-16.43c-3.14,1.02-6.24,2.03-9.31,3.01c-3.07,0.99-6.13,1.95-9.2,2.9
	c0.44,1.1,1.11,3.01,2.03,5.75c0.91,2.74,1.62,4.73,2.14,5.97c4.89,12.7,9.56,26.16,14.02,40.36c4.45,14.2,8.32,26.85,11.61,37.95
	c3.29-0.51,5.66-0.77,7.12-0.77c1.46,0,3.94,0.26,7.45,0.77c3.21-11.1,7.05-23.75,11.5-37.95c4.45-14.2,9.16-27.65,14.13-40.36
	c0.44-1.24,1.15-3.23,2.14-5.97c0.99-2.74,1.66-4.65,2.03-5.75c-3.07-0.95-6.17-1.92-9.31-2.9C237.1,16.4,234,15.4,230.93,14.38z
	 M238.86,25.31c-4.09,12.26-8.29,24.91-12.59,37.94c-4.31,13.03-8.43,25.46-12.38,37.29l-0.14,0.43h-2.55l-0.14-0.43
	c-8.25-24.68-16.61-49.75-25.08-75.23l-0.17-0.52l0.49-0.24c0.28-0.14,0.59-0.3,0.91-0.48c0.32-0.18,0.66-0.38,1.02-0.59l0.67-0.4
	l0.25,0.74c3.91,11.73,7.93,23.63,11.94,35.37c3.82,11.17,7.63,22.43,11.34,33.49c3.76-11.2,7.57-22.46,11.34-33.49
	c3.99-11.69,8.01-23.59,11.94-35.37l0.23-0.69l0.65,0.32c0.3,0.15,0.96,0.52,2,1.11l0.45,0.25L238.86,25.31z"/>
<path class="st1" d="M274.76,36.17c10.29,0,17.16,0.18,20.59,0.55c3.43,0.37,5.48,0.44,6.13,0.22c0-3.14,0.02-6.3,0.05-9.47
	c0.04-3.18,0.09-6.33,0.16-9.47c-0.66,0-1.83,0.04-3.51,0.11c-1.68,0.07-2.85,0.11-3.5,0.11c-7.67,0.66-14.84,0.93-21.52,0.82
	c-6.68-0.11-13.31-0.24-19.88-0.38c0,1.1,0.04,3.05,0.11,5.86c0.07,2.81,0.11,4.87,0.11,6.19c0.58,13.36,0.73,26.69,0.44,39.97
	c-0.29,13.29-0.69,26.61-1.2,39.97c9.35-0.22,17.47-0.07,24.37,0.44c6.9,0.51,15.02,0.62,24.37,0.33c0-3.14,0.02-6.3,0.05-9.47
	c0.04-3.18,0.09-6.33,0.16-9.47c-0.66,0-1.83,0.04-3.51,0.11c-1.68,0.07-2.85,0.11-3.5,0.11c-5.11,0.44-8.96,0.64-11.55,0.6
	c-2.59-0.04-6.41-0.16-11.44-0.38c-0.15-2.63-0.27-5.24-0.38-7.83c-0.11-2.59-0.24-5.2-0.38-7.83c0-0.66,0.02-1.33,0.05-2.03
	c0.04-0.69,0.05-1.41,0.05-2.14c7.45,0.07,12.06,0.29,13.85,0.66c1.79,0.37,2.94,0.4,3.45,0.11c0-3.14,0.02-6.28,0.05-9.42
	c0.04-3.14,0.05-6.28,0.05-9.42c-1.97,0-3.76,0.07-5.37,0.22c-3.29,0.37-5.31,0.57-6.08,0.6c-0.77,0.04-2.72-0.02-5.86-0.16
	c0.07-7.3,0.18-13.73,0.33-19.27C272.2,36.39,273.3,36.31,274.76,36.17z M280.69,63.15l0.34,3.43h-16.38v33.8l27.75,0.33l0.35,3.33
	h-31.77l0.33-78.14l31.09,0.34l0.34,3.44h-28.1v33.14L280.69,63.15z"/>
<path class="st1" d="M347.61,71.21c9.2-8.54,12.65-18.16,10.35-28.86c-2.3-10.7-9.25-18.78-20.86-24.26c-4.6,0-9.14,0.02-13.63,0.05
	c-4.49,0.04-8.96,0.05-13.42,0.05c-0.07,9.13-0.15,18.23-0.22,27.32c-0.07,9.09-0.15,18.16-0.22,27.22v38.66
	c2.92-0.15,5.68-0.31,8.27-0.49c2.59-0.18,6.22-0.38,10.9-0.6c1.46-3.51,1.22-7.5-0.71-11.99c-1.94-4.49-1.37-8.3,1.7-11.44h0.93
	h1.15c1.97,4.31,3.98,8.6,6.02,12.87s4.13,8.56,6.24,12.87c2.41-0.8,4.86-1.61,7.34-2.41c2.48-0.8,4.96-1.64,7.45-2.52
	c-2.04-5.91-4.16-11.9-6.35-17.96S348.7,77.49,347.61,71.21z M347.39,104.91l-0.15-0.41c-1.9-5.04-3.78-10.02-5.64-14.95
	c-1.8-4.75-3.6-9.64-5.38-14.54c-2.41,0.06-4.96,0.63-7.59,1.7c-2.77,1.12-5.47,2.02-8.02,2.68c-0.27,0.89-0.4,2.24-0.4,4.02
	c0,2.08,0.11,8.68,0.33,20.19l0.01,0.64h-3.79V22.97l0.61-0.02c6.53-0.22,11.66,0.17,15.25,1.17c3.62,1.01,7.93,3.84,12.8,8.42
	l0.12,0.15c7.82,14.09,6.03,27.08-5.32,38.6c-0.58,4.43,0.47,9.9,3.11,16.28c2.73,6.58,4.89,12.14,6.42,16.51l0.29,0.83H347.39z"/>
<path class="st1" d="M320.52,25.47v50.22c8.85-0.68,15.49-3.82,19.74-9.35c4.37-5.68,6.59-12.96,6.6-21.64
	C342.31,30.85,333.69,24.55,320.52,25.47z M338.3,48.76c-0.44,5.69-3.47,11.17-9.09,16.43c-0.44,0.07-1.02,0.18-1.75,0.33
	c-0.15-5.18-0.27-10.37-0.38-15.55c-0.11-5.18-0.17-10.37-0.17-15.55C334.94,38.29,338.73,43.07,338.3,48.76z"/>
<path class="st1" d="M417.63,37.48c4.53-5.77,10.73-8.91,18.62-9.42c3.29-0.15,6.26-0.04,8.92,0.33c2.67,0.37,5.35,0.66,8.05,0.88
	c0.07-3.94,0.17-7.96,0.28-12.05c0.11-4.09,0.27-8.25,0.49-12.48C439.9,3.42,428.43,4.1,419.6,6.76
	c-8.84,2.66-18.07,10.06-27.71,22.18c-8.83,21.98-8.83,43.92,0,65.82c9.64,12.12,18.87,19.49,27.71,22.12
	c8.83,2.63,20.3,3.29,34.39,1.97c-0.44-10.37-0.73-20.1-0.88-29.18c-0.15-9.09-0.22-18.89-0.22-29.41h-12.7h-12.6v17.08v17.09
	c-7.01-3.14-11.97-8.27-14.89-15.39c-2.92-7.12-3.96-14.38-3.12-21.79C410.42,49.84,413.1,43.25,417.63,37.48z M410.75,94.63
	c6.34,9.32,15.91,13.99,28.37,13.76V67.52h3.99v0.63c0,13.36,0.29,27.8,0.88,42.9l0.03,0.69l-0.69-0.04
	c-2.85-0.15-5.65-0.31-8.39-0.49c-2.74-0.18-5.46-0.39-8.17-0.6l-0.16-0.03c-10.11-3.54-17.79-10.01-22.85-19.24
	c-5.03-9.18-7.58-19.08-7.58-29.43s2.55-20.25,7.58-29.43c5.05-9.22,12.74-15.69,22.85-19.24l0.16-0.03c2.7-0.22,5.43-0.42,8.17-0.6
	c2.74-0.18,5.53-0.38,8.37-0.6l0.8-0.06l-0.13,0.79c-0.07,0.4-0.1,1.1-0.1,2.09v0.63h-5.77c-12.56,0.22-22.06,5.24-28.22,14.93
	c-6.22,9.78-9.3,20.64-9.15,32.29C400.87,74.31,404.25,85.07,410.75,94.63z"/>
<path class="st1" d="M483.14,77.13c0-17.67,0.18-31.52,0.55-41.56c0.37-10.04,0.44-15.61,0.22-16.7c-3.29,0-6.57-0.04-9.86-0.11
	c-3.28-0.07-6.53-0.15-9.74-0.22c0,1.1,0.02,3.05,0.05,5.86c0.04,2.81,0.09,4.87,0.16,6.19c0.66,13.36,0.82,26.67,0.49,39.92
	c-0.33,13.25-0.75,26.52-1.26,39.81c3.51,0,7.01-0.04,10.51-0.11c3.51-0.07,7.01-0.11,10.52-0.11c-0.37-5.48-0.68-10.97-0.93-16.48
	C483.59,88.1,483.36,82.6,483.14,77.13z M476.32,103.82h-3.88v-0.63c0-12.72,0.06-25.62,0.16-38.33c0.11-12.78,0.2-25.59,0.27-38.44
	l0-0.62h0.62c0.23,0,0.5-0.05,0.81-0.14c0.39-0.12,0.82-0.22,1.28-0.29l0.73-0.12V103.82z"/>
<path class="st1" d="M529.26,71.21c9.2-8.54,12.65-18.16,10.35-28.86c-2.3-10.7-9.25-18.78-20.86-24.26c-4.6,0-9.14,0.02-13.63,0.05
	c-4.49,0.04-8.96,0.05-13.42,0.05c-0.07,9.13-0.15,18.23-0.22,27.32c-0.07,9.09-0.15,18.16-0.22,27.22v38.66
	c2.92-0.15,5.68-0.31,8.27-0.49c2.59-0.18,6.22-0.38,10.9-0.6c1.46-3.51,1.22-7.5-0.71-11.99c-1.94-4.49-1.37-8.3,1.7-11.44h0.93
	h1.15c1.97,4.31,3.98,8.6,6.02,12.87c2.04,4.27,4.12,8.56,6.24,12.87c2.41-0.8,4.86-1.61,7.34-2.41c2.48-0.8,4.97-1.64,7.45-2.52
	c-2.04-5.91-4.16-11.9-6.35-17.96C532,83.66,530.36,77.49,529.26,71.21z M529.05,104.91l-5.79-15.35c-1.8-4.75-3.6-9.64-5.38-14.54
	c-2.41,0.06-4.96,0.63-7.59,1.7c-2.77,1.12-5.47,2.02-8.02,2.68c-0.27,0.89-0.4,2.24-0.4,4.02c0,2.11,0.11,8.9,0.33,20.19l0.01,0.64
	h-3.79V22.97l0.61-0.02c6.53-0.22,11.66,0.17,15.25,1.17c3.62,1.01,7.93,3.84,12.8,8.42l0.12,0.15c7.82,14.09,6.03,27.08-5.32,38.6
	c-0.58,4.43,0.47,9.91,3.11,16.28c2.73,6.58,4.89,12.14,6.42,16.51l0.29,0.83H529.05z"/>
<path class="st1" d="M502.18,25.47v50.22c8.85-0.68,15.49-3.82,19.74-9.35c4.37-5.68,6.59-12.96,6.6-21.64
	C523.97,30.85,515.35,24.55,502.18,25.47z M519.95,48.76c-0.44,5.69-3.47,11.17-9.09,16.43c-0.44,0.07-1.02,0.18-1.75,0.33
	c-0.15-5.18-0.27-10.37-0.38-15.55c-0.11-5.18-0.16-10.37-0.16-15.55C516.6,38.29,520.39,43.07,519.95,48.76z"/>
<path class="st1" d="M595.82,99.96c-0.04-3.25-0.06-6.52-0.06-9.8c-2.85,0.37-5.68,0.66-8.49,0.88c-2.81,0.22-5.6,0.44-8.38,0.66
	c-4.82,0-10.08-0.07-15.77-0.22c-0.22-2.63-0.39-5.27-0.49-7.94c-0.11-2.67-0.2-5.31-0.28-7.94c0-16.87,0.18-30.1,0.55-39.7
	c0.37-9.6,0.44-14.91,0.22-15.93c-3.14,0-6.26-0.04-9.36-0.11c-3.1-0.07-6.15-0.15-9.14-0.22v5.59c0,2.7,0.04,4.67,0.11,5.91
	c0.58,12.78,0.71,25.79,0.38,39.04c-0.33,13.25-0.75,26.23-1.26,38.93c8.54-0.15,17.18-0.26,25.9-0.33
	c8.73-0.07,17.47,0.22,26.23,0.88C595.91,106.44,595.85,103.21,595.82,99.96z M589.59,101.63l-37.39-0.34v-2.7
	c0-11.79,0.04-23.8,0.11-35.7l0.22-36.43h0.62c0.25,0,0.54-0.03,0.86-0.1l1.84-0.37v71.98h33.73V101.63z"/>
<g>
	<path class="st2" d="M438.11,15.45h5.77v-0.63c0-0.98,0.03-1.68,0.1-2.09l0.13-0.79l-0.8,0.06c-2.85,0.22-5.64,0.42-8.37,0.6
		c-2.74,0.18-5.46,0.38-8.17,0.6l-0.16,0.03c-10.11,3.54-17.79,10.01-22.85,19.24c-5.03,9.18-7.58,19.08-7.58,29.43
		s2.55,20.25,7.58,29.43c5.05,9.22,12.74,15.7,22.85,19.24l0.16,0.03c2.7,0.22,5.43,0.42,8.17,0.6c2.74,0.18,5.54,0.35,8.39,0.49
		l0.69,0.04l-0.03-0.69c-0.58-15.11-0.88-29.54-0.88-42.9v-0.63h-3.99v40.86c-12.45,0.23-22.02-4.43-28.37-13.76
		c-6.51-9.56-9.88-20.31-10.02-31.96c-0.14-11.65,2.94-22.51,9.15-32.29C416.05,20.68,425.55,15.66,438.11,15.45z"/>
	<path class="st2" d="M345.52,32.69l-0.12-0.15c-4.87-4.58-9.18-7.41-12.8-8.42c-3.58-1-8.71-1.39-15.25-1.17l-0.61,0.02v81.28h3.79
		l-0.01-0.64c-0.22-11.51-0.33-18.12-0.33-20.19c0-1.78,0.14-3.13,0.4-4.02c2.55-0.66,5.25-1.56,8.02-2.68
		c2.63-1.07,5.19-1.64,7.59-1.7c1.78,4.89,3.59,9.78,5.38,14.54c1.86,4.93,3.74,9.91,5.64,14.95l0.15,0.41h2.63l-0.29-0.83
		c-1.53-4.37-3.69-9.93-6.42-16.51c-2.64-6.37-3.68-11.85-3.11-16.28C351.55,59.77,353.34,46.78,345.52,32.69z M320.52,25.47
		c13.17-0.92,21.79,5.37,26.34,19.23c-0.02,8.68-2.24,15.96-6.6,21.64c-4.25,5.53-10.88,8.67-19.74,9.35V25.47z"/>
	<path class="st2" d="M71.74,25.99l-1.84,0.37c-0.32,0.06-0.61,0.1-0.86,0.1H68.4l-0.22,36.43c-0.07,11.82-0.11,23.83-0.11,35.7v2.7
		l37.39,0.34v-3.67H71.74V25.99z"/>
	<path class="st2" d="M236.57,23.46l-0.65-0.32l-0.23,0.69c-3.93,11.78-7.94,23.68-11.94,35.37c-3.77,11.04-7.58,22.3-11.34,33.49
		c-3.71-11.06-7.53-22.32-11.34-33.49c-4.01-11.73-8.02-23.63-11.94-35.37l-0.25-0.74l-0.67,0.4c-0.36,0.22-0.7,0.41-1.02,0.59
		c-0.32,0.18-0.62,0.34-0.91,0.48l-0.49,0.24l0.17,0.52c8.47,25.48,16.83,50.56,25.08,75.23l0.14,0.43h2.55l0.14-0.43
		c3.94-11.83,8.07-24.26,12.38-37.29c4.31-13.03,8.51-25.68,12.59-37.94l0.16-0.49l-0.45-0.25
		C237.54,23.98,236.87,23.6,236.57,23.46z"/>
	<path class="st2" d="M17.31,62.69c-0.16-15.18,7.36-30.51,22.35-45.57l0.18-0.18v-3.3h-3.08l-0.18,0.18
		c-1.75,1.75-3.47,3.57-5.11,5.39c-1.64,1.82-3.26,3.61-4.93,5.44C15.84,40.71,11.55,55.83,13.8,69.62
		c2.24,13.75,9.71,27.76,22.22,41.66l0.22,0.25l0.33-0.04c2.5-0.33,3.84-0.98,4.23-2.05l0.14-0.38l-0.28-0.28
		C25.33,93.38,17.48,77.88,17.31,62.69z"/>
	<path class="st2" d="M474.3,25.66c-0.3,0.09-0.58,0.14-0.81,0.14h-0.62l0,0.62c-0.07,12.85-0.16,25.66-0.27,38.44
		c-0.11,12.72-0.16,25.62-0.16,38.33v0.63h3.88V25.25l-0.73,0.12C475.12,25.45,474.69,25.54,474.3,25.66z"/>
	<polygon class="st2" points="132.86,100.38 132.86,66.59 149.25,66.59 148.9,63.15 132.86,62.83 132.86,29.68 160.96,29.68 
		160.62,26.24 129.53,25.9 129.2,104.04 160.97,104.04 160.62,100.71 	"/>
	<path class="st2" d="M555.86,97.97V25.99l-1.84,0.37c-0.32,0.06-0.61,0.1-0.86,0.1h-0.62l-0.22,36.43
		c-0.07,11.91-0.11,23.92-0.11,35.7v2.7l37.39,0.34v-3.67H555.86z"/>
	<polygon class="st2" points="264.65,100.38 264.65,66.59 281.03,66.59 280.69,63.15 264.65,62.83 264.65,29.68 292.75,29.68 
		292.41,26.24 261.32,25.9 260.99,104.04 292.75,104.04 292.4,100.71 	"/>
	<path class="st2" d="M527.18,32.69l-0.12-0.15c-4.87-4.58-9.18-7.41-12.8-8.42c-3.58-1-8.72-1.39-15.25-1.17l-0.61,0.02v81.28h3.79
		l-0.01-0.64c-0.22-11.29-0.33-18.09-0.33-20.19c0-1.78,0.14-3.13,0.4-4.02c2.55-0.66,5.25-1.56,8.02-2.68
		c2.63-1.07,5.19-1.64,7.59-1.7c1.78,4.89,3.59,9.78,5.38,14.54l5.79,15.35h2.63l-0.29-0.83c-1.53-4.37-3.69-9.93-6.42-16.51
		c-2.64-6.37-3.69-11.85-3.11-16.28C533.21,59.77,535,46.78,527.18,32.69z M502.18,25.47c13.17-0.92,21.79,5.37,26.34,19.23
		c-0.02,8.68-2.24,15.96-6.6,21.64c-4.25,5.53-10.88,8.67-19.74,9.35V25.47z"/>
</g>
</svg>
